<svg xmlns="http://www.w3.org/2000/svg" viewBox="0 0 64 64" fill="none">
  <defs>
    <linearGradient id="g42" x1="0" y1="0" x2="64" y2="64" gradientUnits="userSpaceOnUse">
      <stop offset="0%" stop-color="#0891b2"/>
      <stop offset="100%" stop-color="#22d3ee"/>
    </linearGradient>
  </defs>
  <rect x="4" y="4" width="56" height="56" rx="16" fill="#ecfeff"/>
  <rect x="4" y="4" width="56" height="56" rx="16" fill="none" stroke="#fbbf24" stroke-width="1" opacity="0.15"/>
  <g transform="translate(14,14) scale(1.5)" stroke="url(#g42)" stroke-width="2" stroke-linecap="round" stroke-linejoin="round" fill="none">
<path d="M4 10a4 4 0 0 1 4-4h8a4 4 0 0 1 4 4v10a2 2 0 0 1-2 2H6a2 2 0 0 1-2-2z" />
  <path d="M8 10h8" />
  <path d="M8 18h8" />
  <path d="M8 22v-6a2 2 0 0 1 2-2h4a2 2 0 0 1 2 2v6" />
  <path d="M9 6V4a2 2 0 0 1 2-2h2a2 2 0 0 1 2 2v2" />
  </g>
</svg>