<svg xmlns="http://www.w3.org/2000/svg" viewBox="0 0 64 64" fill="none">
  <defs>
    <linearGradient id="g45" x1="0" y1="0" x2="64" y2="64" gradientUnits="userSpaceOnUse">
      <stop offset="0%" stop-color="#f59e0b"/>
      <stop offset="100%" stop-color="#fbbf24"/>
    </linearGradient>
  </defs>
  <rect x="4" y="4" width="56" height="56" rx="16" fill="#ecfeff"/>
  <rect x="4" y="4" width="56" height="56" rx="16" fill="none" stroke="#22d3ee" stroke-width="1" opacity="0.15"/>
  <g transform="translate(14,14) scale(1.5)" stroke="url(#g45)" stroke-width="2" stroke-linecap="round" stroke-linejoin="round" fill="none">
<path d="M5 7a2 2 0 0 0-2 2v11" />
  <path d="M5.803 18H5a2 2 0 0 0 0 4h9.5a.5.5 0 0 0 .5-.5V21" />
  <path d="M9 15V4a2 2 0 0 1 2-2h9.5a.5.5 0 0 1 .5.5v14a.5.5 0 0 1-.5.5H11a2 2 0 0 1 0-4h10" />
  </g>
</svg>