<svg xmlns="http://www.w3.org/2000/svg" viewBox="0 0 64 64" fill="none">
  <defs>
    <linearGradient id="g79" x1="0" y1="0" x2="64" y2="64" gradientUnits="userSpaceOnUse">
      <stop offset="0%" stop-color="#f59e0b"/>
      <stop offset="100%" stop-color="#fbbf24"/>
    </linearGradient>
  </defs>
  <rect x="4" y="4" width="56" height="56" rx="16" fill="#ecfeff"/>
  <rect x="4" y="4" width="56" height="56" rx="16" fill="none" stroke="#0891b2" stroke-width="1" opacity="0.15"/>
  <g transform="translate(14,14) scale(1.5)" stroke="url(#g79)" stroke-width="2" stroke-linecap="round" stroke-linejoin="round" fill="none">
<path d="M12.035 17.012a3 3 0 0 0-3-3l-.311-.002a.72.72 0 0 1-.505-1.229l1.195-1.195A2 2 0 0 1 10.828 11H12a2 2 0 0 0 0-4H9.243a3 3 0 0 0-2.122.879l-2.707 2.707A4.83 4.83 0 0 0 3 14a8 8 0 0 0 8 8h2a8 8 0 0 0 8-8V7a2 2 0 1 0-4 0v2a2 2 0 1 0 4 0" />
  <path d="M13.888 9.662A2 2 0 0 0 17 8V5A2 2 0 1 0 13 5" />
  <path d="M9 5A2 2 0 1 0 5 5V10" />
  <path d="M9 7V4A2 2 0 1 1 13 4V7.268" />
  </g>
</svg>