<svg xmlns="http://www.w3.org/2000/svg" viewBox="0 0 64 64" fill="none">
  <defs>
    <linearGradient id="g69" x1="0" y1="0" x2="64" y2="64" gradientUnits="userSpaceOnUse">
      <stop offset="0%" stop-color="#f59e0b"/>
      <stop offset="100%" stop-color="#fbbf24"/>
    </linearGradient>
  </defs>
  <rect x="4" y="4" width="56" height="56" rx="16" fill="#ecfeff"/>
  <rect x="4" y="4" width="56" height="56" rx="16" fill="none" stroke="#0891b2" stroke-width="1" opacity="0.15"/>
  <g transform="translate(14,14) scale(1.5)" stroke="url(#g69)" stroke-width="2" stroke-linecap="round" stroke-linejoin="round" fill="none">
<path d="M16 12h3a2 2 0 0 0 1.902-1.38l1.056-3.333A1 1 0 0 0 21 6H3a1 1 0 0 0-.958 1.287l1.056 3.334A2 2 0 0 0 5 12h3" />
  <path d="M18 6V3a1 1 0 0 0-1-1h-3" />
  <rect width="8" height="12" x="8" y="10" rx="1" />
  </g>
</svg>