<svg xmlns="http://www.w3.org/2000/svg" viewBox="0 0 64 64" fill="none">
  <defs>
    <linearGradient id="g4" x1="0" y1="0" x2="64" y2="64" gradientUnits="userSpaceOnUse">
      <stop offset="0%" stop-color="#0891b2"/>
      <stop offset="100%" stop-color="#22d3ee"/>
    </linearGradient>
  </defs>
  <rect x="4" y="4" width="56" height="56" rx="16" fill="#ecfeff"/>
  <rect x="4" y="4" width="56" height="56" rx="16" fill="none" stroke="#0891b2" stroke-width="1" opacity="0.15"/>
  <g transform="translate(14,14) scale(1.5)" stroke="url(#g4)" stroke-width="2" stroke-linecap="round" stroke-linejoin="round" fill="none">
<path d="M14 21v-3a2 2 0 0 0-4 0v3" />
  <path d="M18 5v16" />
  <path d="m4 6 7.106-3.79a2 2 0 0 1 1.788 0L20 6" />
  <path d="m6 11-3.52 2.147a1 1 0 0 0-.48.854V19a2 2 0 0 0 2 2h16a2 2 0 0 0 2-2v-5a1 1 0 0 0-.48-.853L18 11" />
  <path d="M6 5v16" />
  <circle cx="12" cy="9" r="2" />
  </g>
</svg>