<svg xmlns="http://www.w3.org/2000/svg" viewBox="0 0 64 64" fill="none">
  <defs>
    <linearGradient id="g57" x1="0" y1="0" x2="64" y2="64" gradientUnits="userSpaceOnUse">
      <stop offset="0%" stop-color="#155e75"/>
      <stop offset="100%" stop-color="#06b6d4"/>
    </linearGradient>
  </defs>
  <rect x="4" y="4" width="56" height="56" rx="16" fill="#ecfeff"/>
  <rect x="4" y="4" width="56" height="56" rx="16" fill="none" stroke="#67e8f9" stroke-width="1" opacity="0.15"/>
  <g transform="translate(14,14) scale(1.5)" stroke="url(#g57)" stroke-width="2" stroke-linecap="round" stroke-linejoin="round" fill="none">
<path stroke="none" d="M0 0h24v24H0z" fill="none"/>
  <path d="M3 15a1 1 0 0 1 1 -1h2a1 1 0 0 1 1 1v2a1 1 0 0 1 -1 1h-2a1 1 0 0 1 -1 -1l0 -2" />
  <path d="M17 15a1 1 0 0 1 1 -1h2a1 1 0 0 1 1 1v2a1 1 0 0 1 -1 1h-2a1 1 0 0 1 -1 -1l0 -2" />
  <path d="M10 7a1 1 0 0 1 1 -1h2a1 1 0 0 1 1 1v2a1 1 0 0 1 -1 1h-2a1 1 0 0 1 -1 -1l0 -2" />
  <path d="M10 8.5a6 6 0 0 0 -5 5.5" />
  <path d="M14 8.5a6 6 0 0 1 5 5.5" />
  <path d="M10 8l-6 0" />
  <path d="M20 8l-6 0" />
  <path d="M2 8a1 1 0 1 0 2 0a1 1 0 1 0 -2 0" />
  <path d="M20 8a1 1 0 1 0 2 0a1 1 0 1 0 -2 0" />
  </g>
</svg>