<svg xmlns="http://www.w3.org/2000/svg" viewBox="0 0 64 64" fill="none">
  <defs>
    <linearGradient id="g25" x1="0" y1="0" x2="64" y2="64" gradientUnits="userSpaceOnUse">
      <stop offset="0%" stop-color="#155e75"/>
      <stop offset="100%" stop-color="#06b6d4"/>
    </linearGradient>
  </defs>
  <rect x="4" y="4" width="56" height="56" rx="16" fill="#ecfeff"/>
  <rect x="4" y="4" width="56" height="56" rx="16" fill="none" stroke="#22d3ee" stroke-width="1" opacity="0.15"/>
  <g transform="translate(14,14) scale(1.5)" stroke="url(#g25)" stroke-width="2" stroke-linecap="round" stroke-linejoin="round" fill="none">
<path d="M9 3H5a2 2 0 0 0-2 2v4m6-6h10a2 2 0 0 1 2 2v4M9 3v18m0 0h10a2 2 0 0 0 2-2V9M9 21H5a2 2 0 0 1-2-2V9m0 0h18" />
  </g>
</svg>