<svg xmlns="http://www.w3.org/2000/svg" viewBox="0 0 64 64" fill="none">
  <defs>
    <linearGradient id="g36" x1="0" y1="0" x2="64" y2="64" gradientUnits="userSpaceOnUse">
      <stop offset="0%" stop-color="#0891b2"/>
      <stop offset="100%" stop-color="#22d3ee"/>
    </linearGradient>
  </defs>
  <rect x="4" y="4" width="56" height="56" rx="16" fill="#ecfeff"/>
  <rect x="4" y="4" width="56" height="56" rx="16" fill="none" stroke="#155e75" stroke-width="1" opacity="0.15"/>
  <g transform="translate(14,14) scale(1.5)" stroke="url(#g36)" stroke-width="2" stroke-linecap="round" stroke-linejoin="round" fill="none">
<path stroke="none" d="M0 0h24v24H0z" fill="none"/>
  <path d="M5 12h14" />
  <path d="M10 15h3a1 1 0 0 1 1 1v1a1 1 0 0 1 -1 1h-2a1 1 0 0 0 -1 1v1a1 1 0 0 0 1 1h3" />
  <path d="M10 5l2 -2v6" />
  </g>
</svg>