<svg xmlns="http://www.w3.org/2000/svg" viewBox="0 0 64 64" fill="none">
  <defs>
    <linearGradient id="g44" x1="0" y1="0" x2="64" y2="64" gradientUnits="userSpaceOnUse">
      <stop offset="0%" stop-color="#0891b2"/>
      <stop offset="100%" stop-color="#22d3ee"/>
    </linearGradient>
  </defs>
  <rect x="4" y="4" width="56" height="56" rx="16" fill="#ecfeff"/>
  <rect x="4" y="4" width="56" height="56" rx="16" fill="none" stroke="#06b6d4" stroke-width="1" opacity="0.15"/>
  <g transform="translate(14,14) scale(1.5)" stroke="url(#g44)" stroke-width="2" stroke-linecap="round" stroke-linejoin="round" fill="none">
<path d="M18 7V5a1 1 0 0 0-1-1H6.5a.5.5 0 0 0-.4.8l4.5 6a2 2 0 0 1 0 2.4l-4.5 6a.5.5 0 0 0 .4.8H17a1 1 0 0 0 1-1v-2" />
  </g>
</svg>