<svg xmlns="http://www.w3.org/2000/svg" viewBox="0 0 64 64" fill="none">
  <defs>
    <linearGradient id="g30" x1="0" y1="0" x2="64" y2="64" gradientUnits="userSpaceOnUse">
      <stop offset="0%" stop-color="#0891b2"/>
      <stop offset="100%" stop-color="#22d3ee"/>
    </linearGradient>
  </defs>
  <rect x="4" y="4" width="56" height="56" rx="16" fill="#ecfeff"/>
  <rect x="4" y="4" width="56" height="56" rx="16" fill="none" stroke="#22d3ee" stroke-width="1" opacity="0.15"/>
  <g transform="translate(14,14) scale(1.5)" stroke="url(#g30)" stroke-width="2" stroke-linecap="round" stroke-linejoin="round" fill="none">
<path stroke="none" d="M0 0h24v24H0z" fill="none"/>
  <path d="M8 18a2 2 0 1 0 -4 0a2 2 0 0 0 4 0" />
  <path d="M20 6a2 2 0 1 0 -4 0a2 2 0 0 0 4 0" />
  <path d="M8 6a2 2 0 1 0 -4 0a2 2 0 0 0 4 0" />
  <path d="M20 18a2 2 0 1 0 -4 0a2 2 0 0 0 4 0" />
  <path d="M14 12a2 2 0 1 0 -4 0a2 2 0 0 0 4 0" />
  <path d="M7.5 7.5l3 3" />
  <path d="M7.5 16.5l3 -3" />
  <path d="M13.5 13.5l3 3" />
  <path d="M16.5 7.5l-3 3" />
  </g>
</svg>