<svg xmlns="http://www.w3.org/2000/svg" viewBox="0 0 64 64" fill="none">
  <defs>
    <linearGradient id="g31" x1="0" y1="0" x2="64" y2="64" gradientUnits="userSpaceOnUse">
      <stop offset="0%" stop-color="#155e75"/>
      <stop offset="100%" stop-color="#06b6d4"/>
    </linearGradient>
  </defs>
  <rect x="4" y="4" width="56" height="56" rx="16" fill="#ecfeff"/>
  <rect x="4" y="4" width="56" height="56" rx="16" fill="none" stroke="#155e75" stroke-width="1" opacity="0.15"/>
  <g transform="translate(14,14) scale(1.5)" stroke="url(#g31)" stroke-width="2" stroke-linecap="round" stroke-linejoin="round" fill="none">
<path stroke="none" d="M0 0h24v24H0z" fill="none"/>
  <path d="M20 18a2 2 0 1 0 -4 0a2 2 0 0 0 4 0" />
  <path d="M8 18a2 2 0 1 0 -4 0a2 2 0 0 0 4 0" />
  <path d="M8 6a2 2 0 1 0 -4 0a2 2 0 0 0 4 0" />
  <path d="M20 6a2 2 0 1 0 -4 0a2 2 0 0 0 4 0" />
  <path d="M6 8v8" />
  <path d="M18 16v-8" />
  <path d="M8 6h8" />
  <path d="M16 18h-8" />
  <path d="M7.5 7.5l9 9" />
  <path d="M7.5 16.5l9 -9" />
  </g>
</svg>