<svg xmlns="http://www.w3.org/2000/svg" viewBox="0 0 64 64" fill="none">
  <defs>
    <linearGradient id="g29" x1="0" y1="0" x2="64" y2="64" gradientUnits="userSpaceOnUse">
      <stop offset="0%" stop-color="#155e75"/>
      <stop offset="100%" stop-color="#06b6d4"/>
    </linearGradient>
  </defs>
  <rect x="4" y="4" width="56" height="56" rx="16" fill="#ecfeff"/>
  <rect x="4" y="4" width="56" height="56" rx="16" fill="none" stroke="#06b6d4" stroke-width="1" opacity="0.15"/>
  <g transform="translate(14,14) scale(1.5)" stroke="url(#g29)" stroke-width="2" stroke-linecap="round" stroke-linejoin="round" fill="none">
<path stroke="none" d="M0 0h24v24H0z" fill="none"/>
  <path d="M14 20a2 2 0 1 0 -4 0a2 2 0 0 0 4 0" />
  <path d="M14 4a2 2 0 1 0 -4 0a2 2 0 0 0 4 0" />
  <path d="M6 12a2 2 0 1 0 -4 0a2 2 0 0 0 4 0" />
  <path d="M22 12a2 2 0 1 0 -4 0a2 2 0 0 0 4 0" />
  <path d="M13.5 5.5l5 5" />
  <path d="M5.5 13.5l5 5" />
  <path d="M13.5 18.5l5 -5" />
  <path d="M10.5 5.5l-5 5" />
  </g>
</svg>