<svg xmlns="http://www.w3.org/2000/svg" viewBox="0 0 64 64" fill="none">
  <defs>
    <linearGradient id="g20" x1="0" y1="0" x2="64" y2="64" gradientUnits="userSpaceOnUse">
      <stop offset="0%" stop-color="#1e293b"/>
      <stop offset="100%" stop-color="#475569"/>
    </linearGradient>
  </defs>
  <rect x="4" y="4" width="56" height="56" rx="16" fill="#f8fafc"/>
  <rect x="4" y="4" width="56" height="56" rx="16" fill="none" stroke="#1e293b" stroke-width="1" opacity="0.15"/>
  <g transform="translate(14,14) scale(1.5)" stroke="url(#g20)" stroke-width="2" stroke-linecap="round" stroke-linejoin="round" fill="none">
<path d="M17 3a2 2 0 0 1 2 2v15a1 1 0 0 1-1.496.868l-4.512-2.578a2 2 0 0 0-1.984 0l-4.512 2.578A1 1 0 0 1 5 20V5a2 2 0 0 1 2-2z" />
  </g>
</svg>