<svg xmlns="http://www.w3.org/2000/svg" viewBox="0 0 64 64" fill="none">
  <defs>
    <linearGradient id="g47" x1="0" y1="0" x2="64" y2="64" gradientUnits="userSpaceOnUse">
      <stop offset="0%" stop-color="#2563eb"/>
      <stop offset="100%" stop-color="#60a5fa"/>
    </linearGradient>
  </defs>
  <rect x="4" y="4" width="56" height="56" rx="16" fill="#f8fafc"/>
  <rect x="4" y="4" width="56" height="56" rx="16" fill="none" stroke="#475569" stroke-width="1" opacity="0.15"/>
  <g transform="translate(14,14) scale(1.5)" stroke="url(#g47)" stroke-width="2" stroke-linecap="round" stroke-linejoin="round" fill="none">
<path d="M10 11v6" />
  <path d="M14 11v6" />
  <path d="M19 6v14a2 2 0 0 1-2 2H7a2 2 0 0 1-2-2V6" />
  <path d="M3 6h18" />
  <path d="M8 6V4a2 2 0 0 1 2-2h4a2 2 0 0 1 2 2v2" />
  </g>
</svg>