<svg xmlns="http://www.w3.org/2000/svg" viewBox="0 0 64 64" fill="none">
  <defs>
    <linearGradient id="g110" x1="0" y1="0" x2="64" y2="64" gradientUnits="userSpaceOnUse">
      <stop offset="0%" stop-color="#1e293b"/>
      <stop offset="100%" stop-color="#475569"/>
    </linearGradient>
  </defs>
  <rect x="4" y="4" width="56" height="56" rx="16" fill="#f8fafc"/>
  <rect x="4" y="4" width="56" height="56" rx="16" fill="none" stroke="#1e293b" stroke-width="1" opacity="0.15"/>
  <g transform="translate(14,14) scale(1.5)" stroke="url(#g110)" stroke-width="2" stroke-linecap="round" stroke-linejoin="round" fill="none">
<path d="M8 3H5a2 2 0 0 0-2 2v14c0 1.1.9 2 2 2h3" />
  <path d="M16 3h3a2 2 0 0 1 2 2v14a2 2 0 0 1-2 2h-3" />
  <path d="M12 20v2" />
  <path d="M12 14v2" />
  <path d="M12 8v2" />
  <path d="M12 2v2" />
  </g>
</svg>