<svg xmlns="http://www.w3.org/2000/svg" viewBox="0 0 64 64" fill="none">
  <defs>
    <linearGradient id="g111" x1="0" y1="0" x2="64" y2="64" gradientUnits="userSpaceOnUse">
      <stop offset="0%" stop-color="#2563eb"/>
      <stop offset="100%" stop-color="#60a5fa"/>
    </linearGradient>
  </defs>
  <rect x="4" y="4" width="56" height="56" rx="16" fill="#f8fafc"/>
  <rect x="4" y="4" width="56" height="56" rx="16" fill="none" stroke="#2563eb" stroke-width="1" opacity="0.15"/>
  <g transform="translate(14,14) scale(1.5)" stroke="url(#g111)" stroke-width="2" stroke-linecap="round" stroke-linejoin="round" fill="none">
<path d="M21 8V5a2 2 0 0 0-2-2H5a2 2 0 0 0-2 2v3" />
  <path d="M21 16v3a2 2 0 0 1-2 2H5a2 2 0 0 1-2-2v-3" />
  <path d="M4 12H2" />
  <path d="M10 12H8" />
  <path d="M16 12h-2" />
  <path d="M22 12h-2" />
  </g>
</svg>