<svg xmlns="http://www.w3.org/2000/svg" viewBox="0 0 64 64" fill="none">
  <defs>
    <linearGradient id="g103" x1="0" y1="0" x2="64" y2="64" gradientUnits="userSpaceOnUse">
      <stop offset="0%" stop-color="#2563eb"/>
      <stop offset="100%" stop-color="#60a5fa"/>
    </linearGradient>
  </defs>
  <rect x="4" y="4" width="56" height="56" rx="16" fill="#f8fafc"/>
  <rect x="4" y="4" width="56" height="56" rx="16" fill="none" stroke="#dc2626" stroke-width="1" opacity="0.15"/>
  <g transform="translate(14,14) scale(1.5)" stroke="url(#g103)" stroke-width="2" stroke-linecap="round" stroke-linejoin="round" fill="none">
<path d="M18 12.5V10a2 2 0 0 0-2-2a2 2 0 0 0-2 2v1.4" />
  <path d="M14 11V9a2 2 0 1 0-4 0v2" />
  <path d="M10 10.5V5a2 2 0 1 0-4 0v9" />
  <path d="m7 15-1.76-1.76a2 2 0 0 0-2.83 2.82l3.6 3.6C7.5 21.14 9.2 22 12 22h2a8 8 0 0 0 8-8V7a2 2 0 1 0-4 0v5" />
  </g>
</svg>