<svg xmlns="http://www.w3.org/2000/svg" viewBox="0 0 64 64" fill="none">
  <defs>
    <linearGradient id="g98" x1="0" y1="0" x2="64" y2="64" gradientUnits="userSpaceOnUse">
      <stop offset="0%" stop-color="#1e293b"/>
      <stop offset="100%" stop-color="#475569"/>
    </linearGradient>
  </defs>
  <rect x="4" y="4" width="56" height="56" rx="16" fill="#f8fafc"/>
  <rect x="4" y="4" width="56" height="56" rx="16" fill="none" stroke="#dc2626" stroke-width="1" opacity="0.15"/>
  <g transform="translate(14,14) scale(1.5)" stroke="url(#g98)" stroke-width="2" stroke-linecap="round" stroke-linejoin="round" fill="none">
<path d="M12.409 5.824c-.702.792-1.15 1.496-1.415 2.166l2.153 2.156a.5.5 0 0 1 0 .707l-2.293 2.293a.5.5 0 0 0 0 .707L12 15" />
  <path d="M13.508 20.313a2 2 0 0 1-3 .019L5 15c-1.5-1.5-3-3.2-3-5.5a5.5 5.5 0 0 1 9.591-3.677.6.6 0 0 0 .818.001A5.5 5.5 0 0 1 22 9.5c0 2.29-1.5 4-3 5.5z" />
  </g>
</svg>