<svg xmlns="http://www.w3.org/2000/svg" viewBox="0 0 64 64" fill="none">
  <defs>
    <linearGradient id="g29" x1="0" y1="0" x2="64" y2="64" gradientUnits="userSpaceOnUse">
      <stop offset="0%" stop-color="#2563eb"/>
      <stop offset="100%" stop-color="#60a5fa"/>
    </linearGradient>
  </defs>
  <rect x="4" y="4" width="56" height="56" rx="16" fill="#f8fafc"/>
  <rect x="4" y="4" width="56" height="56" rx="16" fill="none" stroke="#16a34a" stroke-width="1" opacity="0.15"/>
  <g transform="translate(14,14) scale(1.5)" stroke="url(#g29)" stroke-width="2" stroke-linecap="round" stroke-linejoin="round" fill="none">
<path d="m18.84 12.25 1.72-1.71h-.02a5.004 5.004 0 0 0-.12-7.07 5.006 5.006 0 0 0-6.95 0l-1.72 1.71" />
  <path d="m5.17 11.75-1.71 1.71a5.004 5.004 0 0 0 .12 7.07 5.006 5.006 0 0 0 6.95 0l1.71-1.71" />
  <line x1="8" x2="8" y1="2" y2="5" />
  <line x1="2" x2="5" y1="8" y2="8" />
  <line x1="16" x2="16" y1="19" y2="22" />
  <line x1="19" x2="22" y1="16" y2="16" />
  </g>
</svg>