<svg xmlns="http://www.w3.org/2000/svg" viewBox="0 0 64 64" fill="none">
  <defs>
    <linearGradient id="g62" x1="0" y1="0" x2="64" y2="64" gradientUnits="userSpaceOnUse">
      <stop offset="0%" stop-color="#2563eb"/>
      <stop offset="100%" stop-color="#8b5cf6"/>
    </linearGradient>
  </defs>
  <rect x="4" y="4" width="56" height="56" rx="16" fill="#eff6ff"/>
  <rect x="4" y="4" width="56" height="56" rx="16" fill="none" stroke="#10b981" stroke-width="1" opacity="0.15"/>
  <g transform="translate(14,14) scale(1.5)" stroke="url(#g62)" stroke-width="2" stroke-linecap="round" stroke-linejoin="round" fill="none">
<path d="M10 20a1 1 0 0 0 .553.895l2 1A1 1 0 0 0 14 21v-7a2 2 0 0 1 .517-1.341L21.74 4.67A1 1 0 0 0 21 3H3a1 1 0 0 0-.742 1.67l7.225 7.989A2 2 0 0 1 10 14z" />
  </g>
</svg>