<svg xmlns="http://www.w3.org/2000/svg" viewBox="0 0 64 64" fill="none">
  <defs>
    <linearGradient id="g21" x1="0" y1="0" x2="64" y2="64" gradientUnits="userSpaceOnUse">
      <stop offset="0%" stop-color="#06b6d4"/>
      <stop offset="100%" stop-color="#10b981"/>
    </linearGradient>
  </defs>
  <rect x="4" y="4" width="56" height="56" rx="16" fill="#eff6ff"/>
  <rect x="4" y="4" width="56" height="56" rx="16" fill="none" stroke="#06b6d4" stroke-width="1" opacity="0.15"/>
  <g transform="translate(14,14) scale(1.5)" stroke="url(#g21)" stroke-width="2" stroke-linecap="round" stroke-linejoin="round" fill="none">
<path d="M12 5a3 3 0 1 0-5.997.125 4 4 0 0 0-2.526 5.77 4 4 0 0 0 .556 6.588A4 4 0 1 0 12 18Z" />
  <path d="M9 13a4.5 4.5 0 0 0 3-4" />
  <path d="M6.003 5.125A3 3 0 0 0 6.401 6.5" />
  <path d="M3.477 10.896a4 4 0 0 1 .585-.396" />
  <path d="M6 18a4 4 0 0 1-1.967-.516" />
  <path d="M12 13h4" />
  <path d="M12 18h6a2 2 0 0 1 2 2v1" />
  <path d="M12 8h8" />
  <path d="M16 8V5a2 2 0 0 1 2-2" />
  <circle cx="16" cy="13" r=".5" />
  <circle cx="18" cy="3" r=".5" />
  <circle cx="20" cy="21" r=".5" />
  <circle cx="20" cy="8" r=".5" />
  </g>
</svg>