<svg xmlns="http://www.w3.org/2000/svg" viewBox="0 0 64 64" fill="none">
  <defs>
    <linearGradient id="g72" x1="0" y1="0" x2="64" y2="64" gradientUnits="userSpaceOnUse">
      <stop offset="0%" stop-color="#2563eb"/>
      <stop offset="100%" stop-color="#8b5cf6"/>
    </linearGradient>
  </defs>
  <rect x="4" y="4" width="56" height="56" rx="16" fill="#eff6ff"/>
  <rect x="4" y="4" width="56" height="56" rx="16" fill="none" stroke="#10b981" stroke-width="1" opacity="0.15"/>
  <g transform="translate(14,14) scale(1.5)" stroke="url(#g72)" stroke-width="2" stroke-linecap="round" stroke-linejoin="round" fill="none">
<circle cx="12" cy="12" r="3" />
  <path d="M12 16.5A4.5 4.5 0 1 1 7.5 12 4.5 4.5 0 1 1 12 7.5a4.5 4.5 0 1 1 4.5 4.5 4.5 4.5 0 1 1-4.5 4.5" />
  <path d="M12 7.5V9" />
  <path d="M7.5 12H9" />
  <path d="M16.5 12H15" />
  <path d="M12 16.5V15" />
  <path d="m8 8 1.88 1.88" />
  <path d="M14.12 9.88 16 8" />
  <path d="m8 16 1.88-1.88" />
  <path d="M14.12 14.12 16 16" />
  </g>
</svg>