<svg xmlns="http://www.w3.org/2000/svg" viewBox="0 0 64 64" fill="none">
  <defs>
    <linearGradient id="g22" x1="0" y1="0" x2="64" y2="64" gradientUnits="userSpaceOnUse">
      <stop offset="0%" stop-color="#2563eb"/>
      <stop offset="100%" stop-color="#8b5cf6"/>
    </linearGradient>
  </defs>
  <rect x="4" y="4" width="56" height="56" rx="16" fill="#eff6ff"/>
  <rect x="4" y="4" width="56" height="56" rx="16" fill="none" stroke="#10b981" stroke-width="1" opacity="0.15"/>
  <g transform="translate(14,14) scale(1.5)" stroke="url(#g22)" stroke-width="2" stroke-linecap="round" stroke-linejoin="round" fill="none">
<path d="m10.852 14.772-.383.923" />
  <path d="m10.852 9.228-.383-.923" />
  <path d="m13.148 14.772.382.924" />
  <path d="m13.531 8.305-.383.923" />
  <path d="m14.772 10.852.923-.383" />
  <path d="m14.772 13.148.923.383" />
  <path d="M17.598 6.5A3 3 0 1 0 12 5a3 3 0 0 0-5.63-1.446 3 3 0 0 0-.368 1.571 4 4 0 0 0-2.525 5.771" />
  <path d="M17.998 5.125a4 4 0 0 1 2.525 5.771" />
  <path d="M19.505 10.294a4 4 0 0 1-1.5 7.706" />
  <path d="M4.032 17.483A4 4 0 0 0 11.464 20c.18-.311.892-.311 1.072 0a4 4 0 0 0 7.432-2.516" />
  <path d="M4.5 10.291A4 4 0 0 0 6 18" />
  <path d="M6.002 5.125a3 3 0 0 0 .4 1.375" />
  <path d="m9.228 10.852-.923-.383" />
  <path d="m9.228 13.148-.923.383" />
  <circle cx="12" cy="12" r="3" />
  </g>
</svg>