<svg xmlns="http://www.w3.org/2000/svg" viewBox="0 0 64 64" fill="none">
  <defs>
    <linearGradient id="g111" x1="0" y1="0" x2="64" y2="64" gradientUnits="userSpaceOnUse">
      <stop offset="0%" stop-color="#f59e0b"/>
      <stop offset="100%" stop-color="#fbbf24"/>
    </linearGradient>
  </defs>
  <rect x="4" y="4" width="56" height="56" rx="16" fill="#fff7ed"/>
  <rect x="4" y="4" width="56" height="56" rx="16" fill="none" stroke="#f59e0b" stroke-width="1" opacity="0.15"/>
  <g transform="translate(14,14) scale(1.5)" stroke="url(#g111)" stroke-width="2" stroke-linecap="round" stroke-linejoin="round" fill="none">
<path d="M16 7h.01" />
  <path d="M3.4 18H12a8 8 0 0 0 8-8V7a4 4 0 0 0-7.28-2.3L2 20" />
  <path d="m20 7 2 .5-2 .5" />
  <path d="M10 18v3" />
  <path d="M14 17.75V21" />
  <path d="M7 18a6 6 0 0 0 3.84-10.61" />
  </g>
</svg>