<svg xmlns="http://www.w3.org/2000/svg" viewBox="0 0 64 64" fill="none">
  <defs>
    <linearGradient id="g51" x1="0" y1="0" x2="64" y2="64" gradientUnits="userSpaceOnUse">
      <stop offset="0%" stop-color="#f59e0b"/>
      <stop offset="100%" stop-color="#fbbf24"/>
    </linearGradient>
  </defs>
  <rect x="4" y="4" width="56" height="56" rx="16" fill="#fff7ed"/>
  <rect x="4" y="4" width="56" height="56" rx="16" fill="none" stroke="#f59e0b" stroke-width="1" opacity="0.15"/>
  <g transform="translate(14,14) scale(1.5)" stroke="url(#g51)" stroke-width="2" stroke-linecap="round" stroke-linejoin="round" fill="none">
<path d="m12 9-8.414 8.414A2 2 0 0 0 3 18.828v1.344a2 2 0 0 1-.586 1.414A2 2 0 0 1 3.828 21h1.344a2 2 0 0 0 1.414-.586L15 12" />
  <path d="m18 9 .4.4a1 1 0 1 1-3 3l-3.8-3.8a1 1 0 1 1 3-3l.4.4 3.4-3.4a1 1 0 1 1 3 3z" />
  <path d="m2 22 .414-.414" />
  </g>
</svg>