<svg xmlns="http://www.w3.org/2000/svg" viewBox="0 0 64 64" fill="none">
  <defs>
    <linearGradient id="g36" x1="0" y1="0" x2="64" y2="64" gradientUnits="userSpaceOnUse">
      <stop offset="0%" stop-color="#ea580c"/>
      <stop offset="100%" stop-color="#fb923c"/>
    </linearGradient>
  </defs>
  <rect x="4" y="4" width="56" height="56" rx="16" fill="#fff7ed"/>
  <rect x="4" y="4" width="56" height="56" rx="16" fill="none" stroke="#f59e0b" stroke-width="1" opacity="0.15"/>
  <g transform="translate(14,14) scale(1.5)" stroke="url(#g36)" stroke-width="2" stroke-linecap="round" stroke-linejoin="round" fill="none">
<path d="M12 3v18" />
  <path d="m19 8 3 8a5 5 0 0 1-6 0zV7" />
  <path d="M3 7h1a17 17 0 0 0 8-2 17 17 0 0 0 8 2h1" />
  <path d="m5 8 3 8a5 5 0 0 1-6 0zV7" />
  <path d="M7 21h10" />
  </g>
</svg>