<svg xmlns="http://www.w3.org/2000/svg" viewBox="0 0 64 64" fill="none">
  <defs>
    <linearGradient id="g0" x1="0" y1="0" x2="64" y2="64" gradientUnits="userSpaceOnUse">
      <stop offset="0%" stop-color="#ea580c"/>
      <stop offset="100%" stop-color="#fb923c"/>
    </linearGradient>
  </defs>
  <rect x="4" y="4" width="56" height="56" rx="16" fill="#fff7ed"/>
  <rect x="4" y="4" width="56" height="56" rx="16" fill="none" stroke="#fb923c" stroke-width="1" opacity="0.15"/>
  <g transform="translate(14,14) scale(1.5)" stroke="url(#g0)" stroke-width="2" stroke-linecap="round" stroke-linejoin="round" fill="none">
<path d="M6 18h8" />
  <path d="M3 22h18" />
  <path d="M14 22a7 7 0 1 0 0-14h-1" />
  <path d="M9 14h2" />
  <path d="M9 12a2 2 0 0 1-2-2V6h6v4a2 2 0 0 1-2 2Z" />
  <path d="M12 6V3a1 1 0 0 0-1-1H9a1 1 0 0 0-1 1v3" />
  </g>
</svg>