<svg xmlns="http://www.w3.org/2000/svg" viewBox="0 0 64 64" fill="none">
  <defs>
    <linearGradient id="g96" x1="0" y1="0" x2="64" y2="64" gradientUnits="userSpaceOnUse">
      <stop offset="0%" stop-color="#ea580c"/>
      <stop offset="100%" stop-color="#fb923c"/>
    </linearGradient>
  </defs>
  <rect x="4" y="4" width="56" height="56" rx="16" fill="#fff7ed"/>
  <rect x="4" y="4" width="56" height="56" rx="16" fill="none" stroke="#f59e0b" stroke-width="1" opacity="0.15"/>
  <g transform="translate(14,14) scale(1.5)" stroke="url(#g96)" stroke-width="2" stroke-linecap="round" stroke-linejoin="round" fill="none">
<path d="M18.5 8c-1.4 0-2.6-.8-3.2-2A6.87 6.87 0 0 0 2 9v11a2 2 0 0 0 2 2h16a2 2 0 0 0 2-2v-8.5C22 9.6 20.4 8 18.5 8" />
  <path d="M2 14h20" />
  <path d="M6 14v4" />
  <path d="M10 14v4" />
  <path d="M14 14v4" />
  <path d="M18 14v4" />
  </g>
</svg>