<svg xmlns="http://www.w3.org/2000/svg" viewBox="0 0 64 64" fill="none">
  <defs>
    <linearGradient id="g58" x1="0" y1="0" x2="64" y2="64" gradientUnits="userSpaceOnUse">
      <stop offset="0%" stop-color="#ea580c"/>
      <stop offset="100%" stop-color="#fb923c"/>
    </linearGradient>
  </defs>
  <rect x="4" y="4" width="56" height="56" rx="16" fill="#fff7ed"/>
  <rect x="4" y="4" width="56" height="56" rx="16" fill="none" stroke="#16a34a" stroke-width="1" opacity="0.15"/>
  <g transform="translate(14,14) scale(1.5)" stroke="url(#g58)" stroke-width="2" stroke-linecap="round" stroke-linejoin="round" fill="none">
<path d="M11 2h2" />
  <path d="m14.28 14-4.56 8" />
  <path d="m21 22-1.558-4H4.558" />
  <path d="M3 10v2" />
  <path d="M6.245 15.04A2 2 0 0 1 8 14h12a1 1 0 0 1 .864 1.505l-3.11 5.457A2 2 0 0 1 16 22H4a1 1 0 0 1-.863-1.506z" />
  <path d="M7 2a4 4 0 0 1-4 4" />
  <path d="m8.66 7.66 1.41 1.41" />
  </g>
</svg>