<svg xmlns="http://www.w3.org/2000/svg" viewBox="0 0 64 64" fill="none">
  <defs>
    <linearGradient id="g109" x1="0" y1="0" x2="64" y2="64" gradientUnits="userSpaceOnUse">
      <stop offset="0%" stop-color="#f59e0b"/>
      <stop offset="100%" stop-color="#fbbf24"/>
    </linearGradient>
  </defs>
  <rect x="4" y="4" width="56" height="56" rx="16" fill="#fff7ed"/>
  <rect x="4" y="4" width="56" height="56" rx="16" fill="none" stroke="#ea580c" stroke-width="1" opacity="0.15"/>
  <g transform="translate(14,14) scale(1.5)" stroke="url(#g109)" stroke-width="2" stroke-linecap="round" stroke-linejoin="round" fill="none">
<path d="m10 20-1.25-2.5L6 18" />
  <path d="M10 4 8.75 6.5 6 6" />
  <path d="m14 20 1.25-2.5L18 18" />
  <path d="m14 4 1.25 2.5L18 6" />
  <path d="m17 21-3-6h-4" />
  <path d="m17 3-3 6 1.5 3" />
  <path d="M2 12h6.5L10 9" />
  <path d="m20 10-1.5 2 1.5 2" />
  <path d="M22 12h-6.5L14 15" />
  <path d="m4 10 1.5 2L4 14" />
  <path d="m7 21 3-6-1.5-3" />
  <path d="m7 3 3 6h4" />
  </g>
</svg>