<svg xmlns="http://www.w3.org/2000/svg" viewBox="0 0 64 64" fill="none">
  <defs>
    <linearGradient id="g101" x1="0" y1="0" x2="64" y2="64" gradientUnits="userSpaceOnUse">
      <stop offset="0%" stop-color="#f59e0b"/>
      <stop offset="100%" stop-color="#fbbf24"/>
    </linearGradient>
  </defs>
  <rect x="4" y="4" width="56" height="56" rx="16" fill="#fff7ed"/>
  <rect x="4" y="4" width="56" height="56" rx="16" fill="none" stroke="#f59e0b" stroke-width="1" opacity="0.15"/>
  <g transform="translate(14,14) scale(1.5)" stroke="url(#g101)" stroke-width="2" stroke-linecap="round" stroke-linejoin="round" fill="none">
<path d="M3 3h.01" />
  <path d="M7 5h.01" />
  <path d="M11 7h.01" />
  <path d="M3 7h.01" />
  <path d="M7 9h.01" />
  <path d="M3 11h.01" />
  <rect width="4" height="4" x="15" y="5" />
  <path d="m19 9 2 2v10c0 .6-.4 1-1 1h-6c-.6 0-1-.4-1-1V11l2-2" />
  <path d="m13 14 8-2" />
  <path d="m13 19 8-2" />
  </g>
</svg>