<svg xmlns="http://www.w3.org/2000/svg" viewBox="0 0 64 64" fill="none">
  <defs>
    <linearGradient id="g57" x1="0" y1="0" x2="64" y2="64" gradientUnits="userSpaceOnUse">
      <stop offset="0%" stop-color="#8b5cf6"/>
      <stop offset="100%" stop-color="#a78bfa"/>
    </linearGradient>
  </defs>
  <rect x="4" y="4" width="56" height="56" rx="16" fill="#fdf2f8"/>
  <rect x="4" y="4" width="56" height="56" rx="16" fill="none" stroke="#a78bfa" stroke-width="1" opacity="0.15"/>
  <g transform="translate(14,14) scale(1.5)" stroke="url(#g57)" stroke-width="2" stroke-linecap="round" stroke-linejoin="round" fill="none">
<path d="M12 22a1 1 0 0 1 0-20 10 9 0 0 1 10 9 5 5 0 0 1-5 5h-2.25a1.75 1.75 0 0 0-1.4 2.8l.3.4a1.75 1.75 0 0 1-1.4 2.8z" />
  <circle cx="13.5" cy="6.5" r=".5" fill="url(#g57)" />
  <circle cx="17.5" cy="10.5" r=".5" fill="url(#g57)" />
  <circle cx="6.5" cy="12.5" r=".5" fill="url(#g57)" />
  <circle cx="8.5" cy="7.5" r=".5" fill="url(#g57)" />
  </g>
</svg>