<svg xmlns="http://www.w3.org/2000/svg" viewBox="0 0 64 64" fill="none">
  <defs>
    <linearGradient id="g37" x1="0" y1="0" x2="64" y2="64" gradientUnits="userSpaceOnUse">
      <stop offset="0%" stop-color="#8b5cf6"/>
      <stop offset="100%" stop-color="#a78bfa"/>
    </linearGradient>
  </defs>
  <rect x="4" y="4" width="56" height="56" rx="16" fill="#fdf2f8"/>
  <rect x="4" y="4" width="56" height="56" rx="16" fill="none" stroke="#a78bfa" stroke-width="1" opacity="0.15"/>
  <g transform="translate(14,14) scale(1.5)" stroke="url(#g37)" stroke-width="2" stroke-linecap="round" stroke-linejoin="round" fill="none">
<path d="M2.992 16.342a2 2 0 0 1 .094 1.167l-1.065 3.29a1 1 0 0 0 1.236 1.168l3.413-.998a2 2 0 0 1 1.099.092 10 10 0 1 0-4.777-4.719" />
  <path d="M9.09 9a3 3 0 0 1 5.83 1c0 2-3 3-3 3" />
  <path d="M12 17h.01" />
  </g>
</svg>