<svg xmlns="http://www.w3.org/2000/svg" viewBox="0 0 64 64" fill="none">
  <defs>
    <linearGradient id="g48" x1="0" y1="0" x2="64" y2="64" gradientUnits="userSpaceOnUse">
      <stop offset="0%" stop-color="#ec4899"/>
      <stop offset="100%" stop-color="#f472b6"/>
    </linearGradient>
  </defs>
  <rect x="4" y="4" width="56" height="56" rx="16" fill="#fdf2f8"/>
  <rect x="4" y="4" width="56" height="56" rx="16" fill="none" stroke="#fbbf24" stroke-width="1" opacity="0.15"/>
  <g transform="translate(14,14) scale(1.5)" stroke="url(#g48)" stroke-width="2" stroke-linecap="round" stroke-linejoin="round" fill="none">
<path d="M12 11.22C11 9.997 10 9 10 8a2 2 0 0 1 4 0c0 1-.998 2.002-2.01 3.22" />
  <path d="m12 18 2.57-3.5" />
  <path d="M6.243 9.016a7 7 0 0 1 11.507-.009" />
  <path d="M9.35 14.53 12 11.22" />
  <path d="M9.35 14.53C7.728 12.246 6 10.221 6 7a6 5 0 0 1 12 0c-.005 3.22-1.778 5.235-3.43 7.5l3.557 4.527a1 1 0 0 1-.203 1.43l-1.894 1.36a1 1 0 0 1-1.384-.215L12 18l-2.679 3.593a1 1 0 0 1-1.39.213l-1.865-1.353a1 1 0 0 1-.203-1.422z" />
  </g>
</svg>