<svg xmlns="http://www.w3.org/2000/svg" viewBox="0 0 64 64" fill="none">
  <defs>
    <linearGradient id="g37" x1="0" y1="0" x2="64" y2="64" gradientUnits="userSpaceOnUse">
      <stop offset="0%" stop-color="#7e22ce"/>
      <stop offset="100%" stop-color="#a855f7"/>
    </linearGradient>
  </defs>
  <rect x="4" y="4" width="56" height="56" rx="16" fill="#fae8ff"/>
  <rect x="4" y="4" width="56" height="56" rx="16" fill="none" stroke="#7e22ce" stroke-width="1" opacity="0.15"/>
  <g transform="translate(14,14) scale(1.5)" stroke="url(#g37)" stroke-width="2" stroke-linecap="round" stroke-linejoin="round" fill="none">
<path d="M10.1 2.182a10 10 0 0 1 3.8 0" />
  <path d="M13.9 21.818a10 10 0 0 1-3.8 0" />
  <path d="M17.609 3.721a10 10 0 0 1 2.69 2.7" />
  <path d="M2.182 13.9a10 10 0 0 1 0-3.8" />
  <path d="M20.279 17.609a10 10 0 0 1-2.7 2.69" />
  <path d="M21.818 10.1a10 10 0 0 1 0 3.8" />
  <path d="M3.721 6.391a10 10 0 0 1 2.7-2.69" />
  <path d="M6.391 20.279a10 10 0 0 1-2.69-2.7" />
  </g>
</svg>