<svg xmlns="http://www.w3.org/2000/svg" viewBox="0 0 64 64" fill="none">
  <defs>
    <linearGradient id="g19" x1="0" y1="0" x2="64" y2="64" gradientUnits="userSpaceOnUse">
      <stop offset="0%" stop-color="#7e22ce"/>
      <stop offset="100%" stop-color="#a855f7"/>
    </linearGradient>
  </defs>
  <rect x="4" y="4" width="56" height="56" rx="16" fill="#fae8ff"/>
  <rect x="4" y="4" width="56" height="56" rx="16" fill="none" stroke="#9333ea" stroke-width="1" opacity="0.15"/>
  <g transform="translate(14,14) scale(1.5)" stroke="url(#g19)" stroke-width="2" stroke-linecap="round" stroke-linejoin="round" fill="none">
<path d="m21.12 6.4-6.05-4.06a2 2 0 0 0-2.17-.05L2.95 8.41a2 2 0 0 0-.95 1.7v5.82a2 2 0 0 0 .88 1.66l6.05 4.07a2 2 0 0 0 2.17.05l9.95-6.12a2 2 0 0 0 .95-1.7V8.06a2 2 0 0 0-.88-1.66Z" />
  <path d="M10 22v-8L2.25 9.15" />
  <path d="m10 14 11.77-6.87" />
  </g>
</svg>