<svg xmlns="http://www.w3.org/2000/svg" viewBox="0 0 64 64" fill="none">
  <defs>
    <linearGradient id="g5" x1="0" y1="0" x2="64" y2="64" gradientUnits="userSpaceOnUse">
      <stop offset="0%" stop-color="#7e22ce"/>
      <stop offset="100%" stop-color="#a855f7"/>
    </linearGradient>
  </defs>
  <rect x="4" y="4" width="56" height="56" rx="16" fill="#fae8ff"/>
  <rect x="4" y="4" width="56" height="56" rx="16" fill="none" stroke="#c084fc" stroke-width="1" opacity="0.15"/>
  <g transform="translate(14,14) scale(1.5)" stroke="url(#g5)" stroke-width="2" stroke-linecap="round" stroke-linejoin="round" fill="none">
<path d="M10.83 2.38a2 2 0 0 1 2.34 0l8 5.74a2 2 0 0 1 .73 2.25l-3.04 9.26a2 2 0 0 1-1.9 1.37H7.04a2 2 0 0 1-1.9-1.37L2.1 10.37a2 2 0 0 1 .73-2.25z" />
  </g>
</svg>