<svg xmlns="http://www.w3.org/2000/svg" viewBox="0 0 64 64" fill="none">
  <defs>
    <linearGradient id="g29" x1="0" y1="0" x2="64" y2="64" gradientUnits="userSpaceOnUse">
      <stop offset="0%" stop-color="#7e22ce"/>
      <stop offset="100%" stop-color="#a855f7"/>
    </linearGradient>
  </defs>
  <rect x="4" y="4" width="56" height="56" rx="16" fill="#fae8ff"/>
  <rect x="4" y="4" width="56" height="56" rx="16" fill="none" stroke="#9333ea" stroke-width="1" opacity="0.15"/>
  <g transform="translate(14,14) scale(1.5)" stroke="url(#g29)" stroke-width="2" stroke-linecap="round" stroke-linejoin="round" fill="none">
<path stroke="none" d="M0 0h24v24H0z" fill="none"/>
  <path d="M4.731 19h11.539a1 1 0 0 0 .866 -1.5l-5.769 -10a1 1 0 0 0 -1.732 0l-5.769 10a1 1 0 0 0 .865 1.5" />
  <path d="M2 13h4.45" />
  <path d="M18 5l-4.5 6" />
  <path d="M22 9l-7.75 3.25" />
  <path d="M22 15l-7 -1.5" />
  </g>
</svg>