<svg xmlns="http://www.w3.org/2000/svg" viewBox="0 0 64 64" fill="none">
  <defs>
    <linearGradient id="g35" x1="0" y1="0" x2="64" y2="64" gradientUnits="userSpaceOnUse">
      <stop offset="0%" stop-color="#7e22ce"/>
      <stop offset="100%" stop-color="#a855f7"/>
    </linearGradient>
  </defs>
  <rect x="4" y="4" width="56" height="56" rx="16" fill="#fae8ff"/>
  <rect x="4" y="4" width="56" height="56" rx="16" fill="none" stroke="#c084fc" stroke-width="1" opacity="0.15"/>
  <g transform="translate(14,14) scale(1.5)" stroke="url(#g35)" stroke-width="2" stroke-linecap="round" stroke-linejoin="round" fill="none">
<path d="M12 18v4" />
  <path d="M2 14.499a5.5 5.5 0 0 0 9.591 3.675.6.6 0 0 1 .818.001A5.5 5.5 0 0 0 22 14.5c0-2.29-1.5-4-3-5.5l-5.492-5.312a2 2 0 0 0-3-.02L5 8.999c-1.5 1.5-3 3.2-3 5.5" />
  </g>
</svg>