<svg xmlns="http://www.w3.org/2000/svg" viewBox="0 0 64 64" fill="none">
  <defs>
    <linearGradient id="g40" x1="0" y1="0" x2="64" y2="64" gradientUnits="userSpaceOnUse">
      <stop offset="0%" stop-color="#9333ea"/>
      <stop offset="100%" stop-color="#c084fc"/>
    </linearGradient>
  </defs>
  <rect x="4" y="4" width="56" height="56" rx="16" fill="#fae8ff"/>
  <rect x="4" y="4" width="56" height="56" rx="16" fill="none" stroke="#c084fc" stroke-width="1" opacity="0.15"/>
  <g transform="translate(14,14) scale(1.5)" stroke="url(#g40)" stroke-width="2" stroke-linecap="round" stroke-linejoin="round" fill="none">
<path d="M5 3a2 2 0 0 0-2 2" />
  <path d="M19 3a2 2 0 0 1 2 2" />
  <path d="M21 19a2 2 0 0 1-2 2" />
  <path d="M5 21a2 2 0 0 1-2-2" />
  <path d="M9 3h1" />
  <path d="M9 21h1" />
  <path d="M14 3h1" />
  <path d="M14 21h1" />
  <path d="M3 9v1" />
  <path d="M21 9v1" />
  <path d="M3 14v1" />
  <path d="M21 14v1" />
  </g>
</svg>