<svg xmlns="http://www.w3.org/2000/svg" viewBox="0 0 64 64" fill="none">
  <defs>
    <linearGradient id="g44" x1="0" y1="0" x2="64" y2="64" gradientUnits="userSpaceOnUse">
      <stop offset="0%" stop-color="#9333ea"/>
      <stop offset="100%" stop-color="#c084fc"/>
    </linearGradient>
  </defs>
  <rect x="4" y="4" width="56" height="56" rx="16" fill="#fae8ff"/>
  <rect x="4" y="4" width="56" height="56" rx="16" fill="none" stroke="#9333ea" stroke-width="1" opacity="0.15"/>
  <g transform="translate(14,14) scale(1.5)" stroke="url(#g44)" stroke-width="2" stroke-linecap="round" stroke-linejoin="round" fill="none">
<path d="M14 11a2 2 0 1 1-4 0 4 4 0 0 1 8 0 6 6 0 0 1-12 0 8 8 0 0 1 16 0 10 10 0 1 1-20 0 11.93 11.93 0 0 1 2.42-7.22 2 2 0 1 1 3.16 2.44" />
  </g>
</svg>