<svg xmlns="http://www.w3.org/2000/svg" viewBox="0 0 64 64" fill="none">
  <defs>
    <linearGradient id="g34" x1="0" y1="0" x2="64" y2="64" gradientUnits="userSpaceOnUse">
      <stop offset="0%" stop-color="#9333ea"/>
      <stop offset="100%" stop-color="#c084fc"/>
    </linearGradient>
  </defs>
  <rect x="4" y="4" width="56" height="56" rx="16" fill="#fae8ff"/>
  <rect x="4" y="4" width="56" height="56" rx="16" fill="none" stroke="#9333ea" stroke-width="1" opacity="0.15"/>
  <g transform="translate(14,14) scale(1.5)" stroke="url(#g34)" stroke-width="2" stroke-linecap="round" stroke-linejoin="round" fill="none">
<path d="M4 9a2 2 0 0 0-2 2v2a2 2 0 0 0 2 2h4a1 1 0 0 1 1 1v4a2 2 0 0 0 2 2h2a2 2 0 0 0 2-2v-4a1 1 0 0 1 1-1h4a2 2 0 0 0 2-2v-2a2 2 0 0 0-2-2h-4a1 1 0 0 1-1-1V4a2 2 0 0 0-2-2h-2a2 2 0 0 0-2 2v4a1 1 0 0 1-1 1z" />
  </g>
</svg>