<svg xmlns="http://www.w3.org/2000/svg" viewBox="0 0 64 64" fill="none">
  <defs>
    <linearGradient id="g39" x1="0" y1="0" x2="64" y2="64" gradientUnits="userSpaceOnUse">
      <stop offset="0%" stop-color="#7e22ce"/>
      <stop offset="100%" stop-color="#a855f7"/>
    </linearGradient>
  </defs>
  <rect x="4" y="4" width="56" height="56" rx="16" fill="#fae8ff"/>
  <rect x="4" y="4" width="56" height="56" rx="16" fill="none" stroke="#9333ea" stroke-width="1" opacity="0.15"/>
  <g transform="translate(14,14) scale(1.5)" stroke="url(#g39)" stroke-width="2" stroke-linecap="round" stroke-linejoin="round" fill="none">
<path d="M10.17 4.193a2 2 0 0 1 3.666.013" />
  <path d="M14 21h2" />
  <path d="m15.874 7.743 1 1.732" />
  <path d="m18.849 12.952 1 1.732" />
  <path d="M21.824 18.18a2 2 0 0 1-1.835 2.824" />
  <path d="M4.024 21a2 2 0 0 1-1.839-2.839" />
  <path d="m5.136 12.952-1 1.732" />
  <path d="M8 21h2" />
  <path d="m8.102 7.743-1 1.732" />
  </g>
</svg>