<svg xmlns="http://www.w3.org/2000/svg" viewBox="0 0 64 64" fill="none">
  <defs>
    <linearGradient id="g22" x1="0" y1="0" x2="64" y2="64" gradientUnits="userSpaceOnUse">
      <stop offset="0%" stop-color="#16a34a"/>
      <stop offset="100%" stop-color="#4ade80"/>
    </linearGradient>
  </defs>
  <rect x="4" y="4" width="56" height="56" rx="16" fill="#f0fdf4"/>
  <rect x="4" y="4" width="56" height="56" rx="16" fill="none" stroke="#a3e635" stroke-width="1" opacity="0.15"/>
  <g transform="translate(14,14) scale(1.5)" stroke="url(#g22)" stroke-width="2" stroke-linecap="round" stroke-linejoin="round" fill="none">
<path d="M12 20v-9" />
  <path d="M14 7a4 4 0 0 1 4 4v3a6 6 0 0 1-12 0v-3a4 4 0 0 1 4-4z" />
  <path d="M14.12 3.88 16 2" />
  <path d="M21 21a4 4 0 0 0-3.81-4" />
  <path d="M21 5a4 4 0 0 1-3.55 3.97" />
  <path d="M22 13h-4" />
  <path d="M3 21a4 4 0 0 1 3.81-4" />
  <path d="M3 5a4 4 0 0 0 3.55 3.97" />
  <path d="M6 13H2" />
  <path d="m8 2 1.88 1.88" />
  <path d="M9 7.13V6a3 3 0 1 1 6 0v1.13" />
  </g>
</svg>