<svg xmlns="http://www.w3.org/2000/svg" viewBox="0 0 64 64" fill="none">
  <defs>
    <linearGradient id="g87" x1="0" y1="0" x2="64" y2="64" gradientUnits="userSpaceOnUse">
      <stop offset="0%" stop-color="#15803d"/>
      <stop offset="100%" stop-color="#a3e635"/>
    </linearGradient>
  </defs>
  <rect x="4" y="4" width="56" height="56" rx="16" fill="#f0fdf4"/>
  <rect x="4" y="4" width="56" height="56" rx="16" fill="none" stroke="#a3e635" stroke-width="1" opacity="0.15"/>
  <g transform="translate(14,14) scale(1.5)" stroke="url(#g87)" stroke-width="2" stroke-linecap="round" stroke-linejoin="round" fill="none">
<path d="M14 4a1 1 0 0 1 1-1" />
  <path d="M15 10a1 1 0 0 1-1-1" />
  <path d="M21 4a1 1 0 0 0-1-1" />
  <path d="M21 9a1 1 0 0 1-1 1" />
  <path d="m3 7 3 3 3-3" />
  <path d="M6 10V5a2 2 0 0 1 2-2h2" />
  <rect x="3" y="14" width="7" height="7" rx="1" />
  </g>
</svg>