<svg xmlns="http://www.w3.org/2000/svg" viewBox="0 0 64 64" fill="none">
  <defs>
    <linearGradient id="g71" x1="0" y1="0" x2="64" y2="64" gradientUnits="userSpaceOnUse">
      <stop offset="0%" stop-color="#15803d"/>
      <stop offset="100%" stop-color="#a3e635"/>
    </linearGradient>
  </defs>
  <rect x="4" y="4" width="56" height="56" rx="16" fill="#f0fdf4"/>
  <rect x="4" y="4" width="56" height="56" rx="16" fill="none" stroke="#15803d" stroke-width="1" opacity="0.15"/>
  <g transform="translate(14,14) scale(1.5)" stroke="url(#g71)" stroke-width="2" stroke-linecap="round" stroke-linejoin="round" fill="none">
<path d="M3 7V5c0-1.1.9-2 2-2h2" />
  <path d="M17 3h2c1.1 0 2 .9 2 2v2" />
  <path d="M21 17v2c0 1.1-.9 2-2 2h-2" />
  <path d="M7 21H5c-1.1 0-2-.9-2-2v-2" />
  <rect width="7" height="5" x="7" y="7" rx="1" />
  <rect width="7" height="5" x="10" y="12" rx="1" />
  </g>
</svg>