<svg xmlns="http://www.w3.org/2000/svg" viewBox="0 0 64 64" fill="none">
  <defs>
    <linearGradient id="g77" x1="0" y1="0" x2="64" y2="64" gradientUnits="userSpaceOnUse">
      <stop offset="0%" stop-color="#15803d"/>
      <stop offset="100%" stop-color="#a3e635"/>
    </linearGradient>
  </defs>
  <rect x="4" y="4" width="56" height="56" rx="16" fill="#f0fdf4"/>
  <rect x="4" y="4" width="56" height="56" rx="16" fill="none" stroke="#a3e635" stroke-width="1" opacity="0.15"/>
  <g transform="translate(14,14) scale(1.5)" stroke="url(#g77)" stroke-width="2" stroke-linecap="round" stroke-linejoin="round" fill="none">
<path stroke="none" d="M0 0h24v24H0z" fill="none"/>
  <path d="M20 4l-2 14.5l-6 2l-6 -2l-2 -14.5l16 0" />
  <path d="M7.5 8h3v8l-2 -1" />
  <path d="M16.5 8h-2.5a.5 .5 0 0 0 -.5 .5v3a.5 .5 0 0 0 .5 .5h1.423a.5 .5 0 0 1 .495 .57l-.418 2.93l-2 .5" />
  </g>
</svg>