<svg xmlns="http://www.w3.org/2000/svg" viewBox="0 0 64 64" fill="none">
  <defs>
    <linearGradient id="g64" x1="0" y1="0" x2="64" y2="64" gradientUnits="userSpaceOnUse">
      <stop offset="0%" stop-color="#16a34a"/>
      <stop offset="100%" stop-color="#4ade80"/>
    </linearGradient>
  </defs>
  <rect x="4" y="4" width="56" height="56" rx="16" fill="#f0fdf4"/>
  <rect x="4" y="4" width="56" height="56" rx="16" fill="none" stroke="#16a34a" stroke-width="1" opacity="0.15"/>
  <g transform="translate(14,14) scale(1.5)" stroke="url(#g64)" stroke-width="2" stroke-linecap="round" stroke-linejoin="round" fill="none">
<path d="M12 13v8" />
  <path d="M12 3v3" />
  <path d="M4 6a1 1 0 0 0-1 1v5a1 1 0 0 0 1 1h13a2 2 0 0 0 1.152-.365l3.424-2.317a1 1 0 0 0 0-1.635l-3.424-2.318A2 2 0 0 0 17 6z" />
  </g>
</svg>