<svg xmlns="http://www.w3.org/2000/svg" viewBox="0 0 64 64" fill="none">
  <defs>
    <linearGradient id="g45" x1="0" y1="0" x2="64" y2="64" gradientUnits="userSpaceOnUse">
      <stop offset="0%" stop-color="#15803d"/>
      <stop offset="100%" stop-color="#a3e635"/>
    </linearGradient>
  </defs>
  <rect x="4" y="4" width="56" height="56" rx="16" fill="#f0fdf4"/>
  <rect x="4" y="4" width="56" height="56" rx="16" fill="none" stroke="#4ade80" stroke-width="1" opacity="0.15"/>
  <g transform="translate(14,14) scale(1.5)" stroke="url(#g45)" stroke-width="2" stroke-linecap="round" stroke-linejoin="round" fill="none">
<path d="M15.536 11.293a1 1 0 0 0 0 1.414l2.376 2.377a1 1 0 0 0 1.414 0l2.377-2.377a1 1 0 0 0 0-1.414l-2.377-2.377a1 1 0 0 0-1.414 0z" />
  <path d="M2.297 11.293a1 1 0 0 0 0 1.414l2.377 2.377a1 1 0 0 0 1.414 0l2.377-2.377a1 1 0 0 0 0-1.414L6.088 8.916a1 1 0 0 0-1.414 0z" />
  <path d="M8.916 17.912a1 1 0 0 0 0 1.415l2.377 2.376a1 1 0 0 0 1.414 0l2.377-2.376a1 1 0 0 0 0-1.415l-2.377-2.376a1 1 0 0 0-1.414 0z" />
  <path d="M8.916 4.674a1 1 0 0 0 0 1.414l2.377 2.376a1 1 0 0 0 1.414 0l2.377-2.376a1 1 0 0 0 0-1.414l-2.377-2.377a1 1 0 0 0-1.414 0z" />
  </g>
</svg>