<svg xmlns="http://www.w3.org/2000/svg" viewBox="0 0 64 64" fill="none">
  <defs>
    <linearGradient id="g85" x1="0" y1="0" x2="64" y2="64" gradientUnits="userSpaceOnUse">
      <stop offset="0%" stop-color="#15803d"/>
      <stop offset="100%" stop-color="#a3e635"/>
    </linearGradient>
  </defs>
  <rect x="4" y="4" width="56" height="56" rx="16" fill="#f0fdf4"/>
  <rect x="4" y="4" width="56" height="56" rx="16" fill="none" stroke="#4ade80" stroke-width="1" opacity="0.15"/>
  <g transform="translate(14,14) scale(1.5)" stroke="url(#g85)" stroke-width="2" stroke-linecap="round" stroke-linejoin="round" fill="none">
<path d="M12 20h-1a2 2 0 0 1-2-2 2 2 0 0 1-2 2H6" />
  <path d="M13 8h7a2 2 0 0 1 2 2v4a2 2 0 0 1-2 2h-7" />
  <path d="M5 16H4a2 2 0 0 1-2-2v-4a2 2 0 0 1 2-2h1" />
  <path d="M6 4h1a2 2 0 0 1 2 2 2 2 0 0 1 2-2h1" />
  <path d="M9 6v12" />
  </g>
</svg>