<svg xmlns="http://www.w3.org/2000/svg" viewBox="0 0 64 64" fill="none">
  <defs>
    <linearGradient id="g18" x1="0" y1="0" x2="64" y2="64" gradientUnits="userSpaceOnUse">
      <stop offset="0%" stop-color="#16a34a"/>
      <stop offset="100%" stop-color="#4ade80"/>
    </linearGradient>
  </defs>
  <rect x="4" y="4" width="56" height="56" rx="16" fill="#f0fdf4"/>
  <rect x="4" y="4" width="56" height="56" rx="16" fill="none" stroke="#fbbf24" stroke-width="1" opacity="0.15"/>
  <g transform="translate(14,14) scale(1.5)" stroke="url(#g18)" stroke-width="2" stroke-linecap="round" stroke-linejoin="round" fill="none">
<path d="M6 18H4a2 2 0 0 1-2-2v-5a2 2 0 0 1 2-2h16a2 2 0 0 1 2 2v5a2 2 0 0 1-2 2h-2" />
  <path d="M6 9V3a1 1 0 0 1 1-1h10a1 1 0 0 1 1 1v6" />
  <rect x="6" y="14" width="12" height="8" rx="1" />
  </g>
</svg>