<svg xmlns="http://www.w3.org/2000/svg" viewBox="0 0 64 64" fill="none">
  <defs>
    <linearGradient id="g68" x1="0" y1="0" x2="64" y2="64" gradientUnits="userSpaceOnUse">
      <stop offset="0%" stop-color="#16a34a"/>
      <stop offset="100%" stop-color="#4ade80"/>
    </linearGradient>
  </defs>
  <rect x="4" y="4" width="56" height="56" rx="16" fill="#f0fdf4"/>
  <rect x="4" y="4" width="56" height="56" rx="16" fill="none" stroke="#fbbf24" stroke-width="1" opacity="0.15"/>
  <g transform="translate(14,14) scale(1.5)" stroke="url(#g68)" stroke-width="2" stroke-linecap="round" stroke-linejoin="round" fill="none">
<path d="m14 12-8.381 8.38a1 1 0 0 1-3.001-3L11 9" />
  <path d="M15 15.5a.5.5 0 0 0 .5.5A6.5 6.5 0 0 0 22 9.5a.5.5 0 0 0-.5-.5h-1.672a2 2 0 0 1-1.414-.586l-5.062-5.062a1.205 1.205 0 0 0-1.704 0L9.352 5.648a1.205 1.205 0 0 0 0 1.704l5.062 5.062A2 2 0 0 1 15 13.828z" />
  </g>
</svg>