<svg xmlns="http://www.w3.org/2000/svg" viewBox="0 0 64 64" fill="none">
  <defs>
    <linearGradient id="g58" x1="0" y1="0" x2="64" y2="64" gradientUnits="userSpaceOnUse">
      <stop offset="0%" stop-color="#16a34a"/>
      <stop offset="100%" stop-color="#4ade80"/>
    </linearGradient>
  </defs>
  <rect x="4" y="4" width="56" height="56" rx="16" fill="#f0fdf4"/>
  <rect x="4" y="4" width="56" height="56" rx="16" fill="none" stroke="#fbbf24" stroke-width="1" opacity="0.15"/>
  <g transform="translate(14,14) scale(1.5)" stroke="url(#g58)" stroke-width="2" stroke-linecap="round" stroke-linejoin="round" fill="none">
<path d="M21 16V8a2 2 0 0 0-1-1.73l-7-4a2 2 0 0 0-2 0l-7 4A2 2 0 0 0 3 8v8a2 2 0 0 0 1 1.73l7 4a2 2 0 0 0 2 0l7-4A2 2 0 0 0 21 16z" />
  <circle cx="12" cy="12" r="4" />
  </g>
</svg>