<svg xmlns="http://www.w3.org/2000/svg" viewBox="0 0 64 64" fill="none">
  <defs>
    <linearGradient id="g59" x1="0" y1="0" x2="64" y2="64" gradientUnits="userSpaceOnUse">
      <stop offset="0%" stop-color="#15803d"/>
      <stop offset="100%" stop-color="#86efac"/>
    </linearGradient>
  </defs>
  <rect x="4" y="4" width="56" height="56" rx="16" fill="#f0fdf4"/>
  <rect x="4" y="4" width="56" height="56" rx="16" fill="none" stroke="#ea580c" stroke-width="1" opacity="0.15"/>
  <g transform="translate(14,14) scale(1.5)" stroke="url(#g59)" stroke-width="2" stroke-linecap="round" stroke-linejoin="round" fill="none">
<path d="M10 18a1 1 0 0 1 1 1v2a1 1 0 0 1-1 1H5a3 3 0 0 1-3-3 1 1 0 0 1 1-1z" />
  <path d="M13 10H4a2 2 0 0 1-2-2V4a2 2 0 0 1 2-2h9a1 1 0 0 1 1 1v6a1 1 0 0 1-1 1l-.81 3.242a1 1 0 0 1-.97.758H8" />
  <path d="M14 4h3a1 1 0 0 1 1 1v2a1 1 0 0 1-1 1h-3" />
  <path d="M18 6h4" />
  <path d="m5 10-2 8" />
  <path d="m7 18 2-8" />
  </g>
</svg>