<svg xmlns="http://www.w3.org/2000/svg" viewBox="0 0 64 64" fill="none">
  <defs>
    <linearGradient id="g53" x1="0" y1="0" x2="64" y2="64" gradientUnits="userSpaceOnUse">
      <stop offset="0%" stop-color="#15803d"/>
      <stop offset="100%" stop-color="#86efac"/>
    </linearGradient>
  </defs>
  <rect x="4" y="4" width="56" height="56" rx="16" fill="#f0fdf4"/>
  <rect x="4" y="4" width="56" height="56" rx="16" fill="none" stroke="#fbbf24" stroke-width="1" opacity="0.15"/>
  <g transform="translate(14,14) scale(1.5)" stroke="url(#g53)" stroke-width="2" stroke-linecap="round" stroke-linejoin="round" fill="none">
<path d="M12 13v1" />
  <path d="M17 2a1 1 0 0 1 1 1v4a3 3 0 0 1-.6 1.8l-.6.8A4 4 0 0 0 16 12v8a2 2 0 0 1-2 2H10a2 2 0 0 1-2-2v-8a4 4 0 0 0-.8-2.4l-.6-.8A3 3 0 0 1 6 7V3a1 1 0 0 1 1-1z" />
  <path d="M6 6h12" />
  </g>
</svg>