<svg xmlns="http://www.w3.org/2000/svg" viewBox="0 0 64 64" fill="none">
  <defs>
    <linearGradient id="g65" x1="0" y1="0" x2="64" y2="64" gradientUnits="userSpaceOnUse">
      <stop offset="0%" stop-color="#15803d"/>
      <stop offset="100%" stop-color="#86efac"/>
    </linearGradient>
  </defs>
  <rect x="4" y="4" width="56" height="56" rx="16" fill="#f0fdf4"/>
  <rect x="4" y="4" width="56" height="56" rx="16" fill="none" stroke="#16a34a" stroke-width="1" opacity="0.15"/>
  <g transform="translate(14,14) scale(1.5)" stroke="url(#g65)" stroke-width="2" stroke-linecap="round" stroke-linejoin="round" fill="none">
<path d="M14 13h2a2 2 0 0 1 2 2v2a2 2 0 0 0 4 0v-6.998a2 2 0 0 0-.59-1.42L18 5" />
  <path d="M14 21V5a2 2 0 0 0-2-2H5a2 2 0 0 0-2 2v16" />
  <path d="M2 21h13" />
  <path d="M3 9h11" />
  </g>
</svg>