<svg xmlns="http://www.w3.org/2000/svg" viewBox="0 0 64 64" fill="none">
  <defs>
    <linearGradient id="g32" x1="0" y1="0" x2="64" y2="64" gradientUnits="userSpaceOnUse">
      <stop offset="0%" stop-color="#16a34a"/>
      <stop offset="100%" stop-color="#4ade80"/>
    </linearGradient>
  </defs>
  <rect x="4" y="4" width="56" height="56" rx="16" fill="#f0fdf4"/>
  <rect x="4" y="4" width="56" height="56" rx="16" fill="none" stroke="#15803d" stroke-width="1" opacity="0.15"/>
  <g transform="translate(14,14) scale(1.5)" stroke="url(#g32)" stroke-width="2" stroke-linecap="round" stroke-linejoin="round" fill="none">
<path d="M11 10.27 7 3.34" />
  <path d="m11 13.73-4 6.93" />
  <path d="M12 22v-2" />
  <path d="M12 2v2" />
  <path d="M14 12h8" />
  <path d="m17 20.66-1-1.73" />
  <path d="m17 3.34-1 1.73" />
  <path d="M2 12h2" />
  <path d="m20.66 17-1.73-1" />
  <path d="m20.66 7-1.73 1" />
  <path d="m3.34 17 1.73-1" />
  <path d="m3.34 7 1.73 1" />
  <circle cx="12" cy="12" r="2" />
  <circle cx="12" cy="12" r="8" />
  </g>
</svg>