<svg xmlns="http://www.w3.org/2000/svg" viewBox="0 0 64 64" fill="none">
  <defs>
    <linearGradient id="g15" x1="0" y1="0" x2="64" y2="64" gradientUnits="userSpaceOnUse">
      <stop offset="0%" stop-color="#15803d"/>
      <stop offset="100%" stop-color="#86efac"/>
    </linearGradient>
  </defs>
  <rect x="4" y="4" width="56" height="56" rx="16" fill="#f0fdf4"/>
  <rect x="4" y="4" width="56" height="56" rx="16" fill="none" stroke="#16a34a" stroke-width="1" opacity="0.15"/>
  <g transform="translate(14,14) scale(1.5)" stroke="url(#g15)" stroke-width="2" stroke-linecap="round" stroke-linejoin="round" fill="none">
<path d="M17 19a1 1 0 0 1-1-1v-2a2 2 0 0 1 2-2h2a2 2 0 0 1 2 2v2a1 1 0 0 1-1 1z" />
  <path d="M17 21v-2" />
  <path d="M19 14V6.5a1 1 0 0 0-7 0v11a1 1 0 0 1-7 0V10" />
  <path d="M21 21v-2" />
  <path d="M3 5V3" />
  <path d="M4 10a2 2 0 0 1-2-2V6a1 1 0 0 1 1-1h4a1 1 0 0 1 1 1v2a2 2 0 0 1-2 2z" />
  <path d="M7 5V3" />
  </g>
</svg>