<svg xmlns="http://www.w3.org/2000/svg" viewBox="0 0 64 64" fill="none">
  <defs>
    <linearGradient id="g67" x1="0" y1="0" x2="64" y2="64" gradientUnits="userSpaceOnUse">
      <stop offset="0%" stop-color="#15803d"/>
      <stop offset="100%" stop-color="#86efac"/>
    </linearGradient>
  </defs>
  <rect x="4" y="4" width="56" height="56" rx="16" fill="#f0fdf4"/>
  <rect x="4" y="4" width="56" height="56" rx="16" fill="none" stroke="#15803d" stroke-width="1" opacity="0.15"/>
  <g transform="translate(14,14) scale(1.5)" stroke="url(#g67)" stroke-width="2" stroke-linecap="round" stroke-linejoin="round" fill="none">
<path d="m14 13-8.381 8.38a1 1 0 0 1-3.001-3L11 9.999" />
  <path d="M15.973 4.027A13 13 0 0 0 5.902 2.373c-1.398.342-1.092 2.158.277 2.601a19.9 19.9 0 0 1 5.822 3.024" />
  <path d="M16.001 11.999a19.9 19.9 0 0 1 3.024 5.824c.444 1.369 2.26 1.676 2.603.278A13 13 0 0 0 20 8.069" />
  <path d="M18.352 3.352a1.205 1.205 0 0 0-1.704 0l-5.296 5.296a1.205 1.205 0 0 0 0 1.704l2.296 2.296a1.205 1.205 0 0 0 1.704 0l5.296-5.296a1.205 1.205 0 0 0 0-1.704z" />
  </g>
</svg>