<svg xmlns="http://www.w3.org/2000/svg" viewBox="0 0 64 64" fill="none">
  <defs>
    <linearGradient id="g21" x1="0" y1="0" x2="64" y2="64" gradientUnits="userSpaceOnUse">
      <stop offset="0%" stop-color="#15803d"/>
      <stop offset="100%" stop-color="#86efac"/>
    </linearGradient>
  </defs>
  <rect x="4" y="4" width="56" height="56" rx="16" fill="#f0fdf4"/>
  <rect x="4" y="4" width="56" height="56" rx="16" fill="none" stroke="#4ade80" stroke-width="1" opacity="0.15"/>
  <g transform="translate(14,14) scale(1.5)" stroke="url(#g21)" stroke-width="2" stroke-linecap="round" stroke-linejoin="round" fill="none">
<path d="M4.9 16.1C1 12.2 1 5.8 4.9 1.9" />
  <path d="M7.8 4.7a6.14 6.14 0 0 0-.8 7.5" />
  <circle cx="12" cy="9" r="2" />
  <path d="M16.2 4.8c2 2 2.26 5.11.8 7.47" />
  <path d="M19.1 1.9a9.96 9.96 0 0 1 0 14.1" />
  <path d="M9.5 18h5" />
  <path d="m8 22 4-11 4 11" />
  </g>
</svg>