<svg xmlns="http://www.w3.org/2000/svg" viewBox="0 0 64 64" fill="none">
  <defs>
    <linearGradient id="g60" x1="0" y1="0" x2="64" y2="64" gradientUnits="userSpaceOnUse">
      <stop offset="0%" stop-color="#16a34a"/>
      <stop offset="100%" stop-color="#4ade80"/>
    </linearGradient>
  </defs>
  <rect x="4" y="4" width="56" height="56" rx="16" fill="#f0fdf4"/>
  <rect x="4" y="4" width="56" height="56" rx="16" fill="none" stroke="#16a34a" stroke-width="1" opacity="0.15"/>
  <g transform="translate(14,14) scale(1.5)" stroke="url(#g60)" stroke-width="2" stroke-linecap="round" stroke-linejoin="round" fill="none">
<path d="M21.56 4.56a1.5 1.5 0 0 1 0 2.122l-.47.47a3 3 0 0 1-4.212-.03 3 3 0 0 1 0-4.243l.44-.44a1.5 1.5 0 0 1 2.121 0z" />
  <path d="M3 22a1 1 0 0 1-1-1v-3.586a1 1 0 0 1 .293-.707l3.355-3.355a1.205 1.205 0 0 1 1.704 0l3.296 3.296a1.205 1.205 0 0 1 0 1.704l-3.355 3.355a1 1 0 0 1-.707.293z" />
  <path d="m9 15 7.879-7.878" />
  </g>
</svg>