<svg xmlns="http://www.w3.org/2000/svg" viewBox="0 0 64 64" fill="none">
  <defs>
    <linearGradient id="g6" x1="0" y1="0" x2="64" y2="64" gradientUnits="userSpaceOnUse">
      <stop offset="0%" stop-color="#16a34a"/>
      <stop offset="100%" stop-color="#4ade80"/>
    </linearGradient>
  </defs>
  <rect x="4" y="4" width="56" height="56" rx="16" fill="#f0fdf4"/>
  <rect x="4" y="4" width="56" height="56" rx="16" fill="none" stroke="#4ade80" stroke-width="1" opacity="0.15"/>
  <g transform="translate(14,14) scale(1.5)" stroke="url(#g6)" stroke-width="2" stroke-linecap="round" stroke-linejoin="round" fill="none">
<path d="M19.07 4.93A10 10 0 0 0 6.99 3.34" />
  <path d="M4 6h.01" />
  <path d="M2.29 9.62A10 10 0 1 0 21.31 8.35" />
  <path d="M16.24 7.76A6 6 0 1 0 8.23 16.67" />
  <path d="M12 18h.01" />
  <path d="M17.99 11.66A6 6 0 0 1 15.77 16.67" />
  <circle cx="12" cy="12" r="2" />
  <path d="m13.41 10.59 5.66-5.66" />
  </g>
</svg>