<svg xmlns="http://www.w3.org/2000/svg" viewBox="0 0 64 64" fill="none">
  <defs>
    <linearGradient id="g68" x1="0" y1="0" x2="64" y2="64" gradientUnits="userSpaceOnUse">
      <stop offset="0%" stop-color="#dc2626"/>
      <stop offset="100%" stop-color="#f87171"/>
    </linearGradient>
  </defs>
  <rect x="4" y="4" width="56" height="56" rx="16" fill="#fef2f2"/>
  <rect x="4" y="4" width="56" height="56" rx="16" fill="none" stroke="#fbbf24" stroke-width="1" opacity="0.15"/>
  <g transform="translate(14,14) scale(1.5)" stroke="url(#g68)" stroke-width="2" stroke-linecap="round" stroke-linejoin="round" fill="none">
<path d="M18 11c-1.5 0-2.5.5-3 2" />
  <path d="M4 6a2 2 0 0 0-2 2v4a5 5 0 0 0 5 5 8 8 0 0 1 5 2 8 8 0 0 1 5-2 5 5 0 0 0 5-5V8a2 2 0 0 0-2-2h-3a8 8 0 0 0-5 2 8 8 0 0 0-5-2z" />
  <path d="M6 11c1.5 0 2.5.5 3 2" />
  </g>
</svg>