<svg xmlns="http://www.w3.org/2000/svg" viewBox="0 0 64 64" fill="none">
  <defs>
    <linearGradient id="g22" x1="0" y1="0" x2="64" y2="64" gradientUnits="userSpaceOnUse">
      <stop offset="0%" stop-color="#dc2626"/>
      <stop offset="100%" stop-color="#f87171"/>
    </linearGradient>
  </defs>
  <rect x="4" y="4" width="56" height="56" rx="16" fill="#fef2f2"/>
  <rect x="4" y="4" width="56" height="56" rx="16" fill="none" stroke="#60a5fa" stroke-width="1" opacity="0.15"/>
  <g transform="translate(14,14) scale(1.5)" stroke="url(#g22)" stroke-width="2" stroke-linecap="round" stroke-linejoin="round" fill="none">
<path d="M12 10a2 2 0 0 0-2 2c0 1.02-.1 2.51-.26 4" />
  <path d="M14 13.12c0 2.38 0 6.38-1 8.88" />
  <path d="M17.29 21.02c.12-.6.43-2.3.5-3.02" />
  <path d="M2 12a10 10 0 0 1 18-6" />
  <path d="M2 16h.01" />
  <path d="M21.8 16c.2-2 .131-5.354 0-6" />
  <path d="M5 19.5C5.5 18 6 15 6 12a6 6 0 0 1 .34-2" />
  <path d="M8.65 22c.21-.66.45-1.32.57-2" />
  <path d="M9 6.8a6 6 0 0 1 9 5.2v2" />
  </g>
</svg>