<svg xmlns="http://www.w3.org/2000/svg" viewBox="0 0 64 64" fill="none">
  <defs>
    <linearGradient id="g43" x1="0" y1="0" x2="64" y2="64" gradientUnits="userSpaceOnUse">
      <stop offset="0%" stop-color="#2563eb"/>
      <stop offset="100%" stop-color="#60a5fa"/>
    </linearGradient>
  </defs>
  <rect x="4" y="4" width="56" height="56" rx="16" fill="#fef2f2"/>
  <rect x="4" y="4" width="56" height="56" rx="16" fill="none" stroke="#fbbf24" stroke-width="1" opacity="0.15"/>
  <g transform="translate(14,14) scale(1.5)" stroke="url(#g43)" stroke-width="2" stroke-linecap="round" stroke-linejoin="round" fill="none">
<path d="M7 3.34V5a3 3 0 0 0 3 3" />
  <path d="M11 21.95V18a2 2 0 0 0-2-2 2 2 0 0 1-2-2v-1a2 2 0 0 0-2-2H2.05" />
  <path d="M21.54 15H17a2 2 0 0 0-2 2v4.54" />
  <path d="M12 2a10 10 0 1 0 9.54 13" />
  <path d="M20 6V4a2 2 0 1 0-4 0v2" />
  <rect width="8" height="5" x="14" y="6" rx="1" />
  </g>
</svg>