<svg xmlns="http://www.w3.org/2000/svg" viewBox="0 0 64 64" fill="none">
  <defs>
    <linearGradient id="g54" x1="0" y1="0" x2="64" y2="64" gradientUnits="userSpaceOnUse">
      <stop offset="0%" stop-color="#dc2626"/>
      <stop offset="100%" stop-color="#f87171"/>
    </linearGradient>
  </defs>
  <rect x="4" y="4" width="56" height="56" rx="16" fill="#fef2f2"/>
  <rect x="4" y="4" width="56" height="56" rx="16" fill="none" stroke="#dc2626" stroke-width="1" opacity="0.15"/>
  <g transform="translate(14,14) scale(1.5)" stroke="url(#g54)" stroke-width="2" stroke-linecap="round" stroke-linejoin="round" fill="none">
<polyline points="22 12 16 12 14 15 10 15 8 12 2 12" />
  <path d="M5.45 5.11 2 12v6a2 2 0 0 0 2 2h16a2 2 0 0 0 2-2v-6l-3.45-6.89A2 2 0 0 0 16.76 4H7.24a2 2 0 0 0-1.79 1.11z" />
  </g>
</svg>