<svg xmlns="http://www.w3.org/2000/svg" viewBox="0 0 64 64" fill="none">
  <defs>
    <linearGradient id="g70" x1="0" y1="0" x2="64" y2="64" gradientUnits="userSpaceOnUse">
      <stop offset="0%" stop-color="#dc2626"/>
      <stop offset="100%" stop-color="#f87171"/>
    </linearGradient>
  </defs>
  <rect x="4" y="4" width="56" height="56" rx="16" fill="#fef2f2"/>
  <rect x="4" y="4" width="56" height="56" rx="16" fill="none" stroke="#2563eb" stroke-width="1" opacity="0.15"/>
  <g transform="translate(14,14) scale(1.5)" stroke="url(#g70)" stroke-width="2" stroke-linecap="round" stroke-linejoin="round" fill="none">
<path d="M11 20H2" />
  <path d="M11 4.562v16.157a1 1 0 0 0 1.242.97L19 20V5.562a2 2 0 0 0-1.515-1.94l-4-1A2 2 0 0 0 11 4.561z" />
  <path d="M11 4H8a2 2 0 0 0-2 2v14" />
  <path d="M14 12h.01" />
  <path d="M22 20h-3" />
  </g>
</svg>