<svg xmlns="http://www.w3.org/2000/svg" viewBox="0 0 64 64" fill="none">
  <defs>
    <linearGradient id="g38" x1="0" y1="0" x2="64" y2="64" gradientUnits="userSpaceOnUse">
      <stop offset="0%" stop-color="#dc2626"/>
      <stop offset="100%" stop-color="#f87171"/>
    </linearGradient>
  </defs>
  <rect x="4" y="4" width="56" height="56" rx="16" fill="#fef2f2"/>
  <rect x="4" y="4" width="56" height="56" rx="16" fill="none" stroke="#fbbf24" stroke-width="1" opacity="0.15"/>
  <g transform="translate(14,14) scale(1.5)" stroke="url(#g38)" stroke-width="2" stroke-linecap="round" stroke-linejoin="round" fill="none">
<rect width="5" height="5" x="3" y="3" rx="1" />
  <rect width="5" height="5" x="16" y="3" rx="1" />
  <rect width="5" height="5" x="3" y="16" rx="1" />
  <path d="M21 16h-3a2 2 0 0 0-2 2v3" />
  <path d="M21 21v.01" />
  <path d="M12 7v3a2 2 0 0 1-2 2H7" />
  <path d="M3 12h.01" />
  <path d="M12 3h.01" />
  <path d="M12 16v.01" />
  <path d="M16 12h1" />
  <path d="M21 12v.01" />
  <path d="M12 21v-1" />
  </g>
</svg>