<svg xmlns="http://www.w3.org/2000/svg" viewBox="0 0 64 64" fill="none">
  <defs>
    <linearGradient id="g48" x1="0" y1="0" x2="64" y2="64" gradientUnits="userSpaceOnUse">
      <stop offset="0%" stop-color="#dc2626"/>
      <stop offset="100%" stop-color="#f87171"/>
    </linearGradient>
  </defs>
  <rect x="4" y="4" width="56" height="56" rx="16" fill="#fef2f2"/>
  <rect x="4" y="4" width="56" height="56" rx="16" fill="none" stroke="#fbbf24" stroke-width="1" opacity="0.15"/>
  <g transform="translate(14,14) scale(1.5)" stroke="url(#g48)" stroke-width="2" stroke-linecap="round" stroke-linejoin="round" fill="none">
<path d="m10.852 14.772-.383.923" />
  <path d="M13.148 14.772a3 3 0 1 0-2.296-5.544l-.383-.923" />
  <path d="m13.148 9.228.383-.923" />
  <path d="m13.53 15.696-.382-.924a3 3 0 1 1-2.296-5.544" />
  <path d="m14.772 10.852.923-.383" />
  <path d="m14.772 13.148.923.383" />
  <path d="M4.5 10H4a2 2 0 0 1-2-2V4a2 2 0 0 1 2-2h16a2 2 0 0 1 2 2v4a2 2 0 0 1-2 2h-.5" />
  <path d="M4.5 14H4a2 2 0 0 0-2 2v4a2 2 0 0 0 2 2h16a2 2 0 0 0 2-2v-4a2 2 0 0 0-2-2h-.5" />
  <path d="M6 18h.01" />
  <path d="M6 6h.01" />
  <path d="m9.228 10.852-.923-.383" />
  <path d="m9.228 13.148-.923.383" />
  </g>
</svg>