<svg xmlns="http://www.w3.org/2000/svg" viewBox="0 0 64 64" fill="none">
  <defs>
    <linearGradient id="g62" x1="0" y1="0" x2="64" y2="64" gradientUnits="userSpaceOnUse">
      <stop offset="0%" stop-color="#dc2626"/>
      <stop offset="100%" stop-color="#f87171"/>
    </linearGradient>
  </defs>
  <rect x="4" y="4" width="56" height="56" rx="16" fill="#fef2f2"/>
  <rect x="4" y="4" width="56" height="56" rx="16" fill="none" stroke="#60a5fa" stroke-width="1" opacity="0.15"/>
  <g transform="translate(14,14) scale(1.5)" stroke="url(#g62)" stroke-width="2" stroke-linecap="round" stroke-linejoin="round" fill="none">
<path d="m2 2 20 20" />
  <path d="M5 5a1 1 0 0 0-1 1v7c0 5 3.5 7.5 7.67 8.94a1 1 0 0 0 .67.01c2.35-.82 4.48-1.97 5.9-3.71" />
  <path d="M9.309 3.652A12.252 12.252 0 0 0 11.24 2.28a1.17 1.17 0 0 1 1.52 0C14.51 3.81 17 5 19 5a1 1 0 0 1 1 1v7a9.784 9.784 0 0 1-.08 1.264" />
  </g>
</svg>