<svg xmlns="http://www.w3.org/2000/svg" viewBox="0 0 64 64" fill="none">
  <defs>
    <linearGradient id="g63" x1="0" y1="0" x2="64" y2="64" gradientUnits="userSpaceOnUse">
      <stop offset="0%" stop-color="#2563eb"/>
      <stop offset="100%" stop-color="#60a5fa"/>
    </linearGradient>
  </defs>
  <rect x="4" y="4" width="56" height="56" rx="16" fill="#fef2f2"/>
  <rect x="4" y="4" width="56" height="56" rx="16" fill="none" stroke="#fbbf24" stroke-width="1" opacity="0.15"/>
  <g transform="translate(14,14) scale(1.5)" stroke="url(#g63)" stroke-width="2" stroke-linecap="round" stroke-linejoin="round" fill="none">
<path d="M7 18v-6a5 5 0 1 1 10 0v6" />
  <path d="M5 21a1 1 0 0 0 1 1h12a1 1 0 0 0 1-1v-1a2 2 0 0 0-2-2H7a2 2 0 0 0-2 2z" />
  <path d="M21 12h1" />
  <path d="M18.5 4.5 18 5" />
  <path d="M2 12h1" />
  <path d="M12 2v1" />
  <path d="m4.929 4.929.707.707" />
  <path d="M12 12v6" />
  </g>
</svg>