<svg xmlns="http://www.w3.org/2000/svg" viewBox="0 0 64 64" fill="none">
  <defs>
    <linearGradient id="g75" x1="0" y1="0" x2="64" y2="64" gradientUnits="userSpaceOnUse">
      <stop offset="0%" stop-color="#2563eb"/>
      <stop offset="100%" stop-color="#60a5fa"/>
    </linearGradient>
  </defs>
  <rect x="4" y="4" width="56" height="56" rx="16" fill="#fef2f2"/>
  <rect x="4" y="4" width="56" height="56" rx="16" fill="none" stroke="#2563eb" stroke-width="1" opacity="0.15"/>
  <g transform="translate(14,14) scale(1.5)" stroke="url(#g75)" stroke-width="2" stroke-linecap="round" stroke-linejoin="round" fill="none">
<path d="m19 12-1.5 3" />
  <path d="M19.63 18.81 22 20" />
  <path d="M6.47 8.23a1.68 1.68 0 0 1 2.44 1.93l-.64 2.08a6.76 6.76 0 0 0 10.16 7.67l.42-.27a1 1 0 1 0-2.73-4.21l-.42.27a1.76 1.76 0 0 1-2.63-1.99l.64-2.08A6.66 6.66 0 0 0 3.94 3.9l-.7.4a1 1 0 1 0 2.55 4.34z" />
  </g>
</svg>