<svg xmlns="http://www.w3.org/2000/svg" viewBox="0 0 64 64" fill="none">
  <defs>
    <linearGradient id="g70" x1="0" y1="0" x2="64" y2="64" gradientUnits="userSpaceOnUse">
      <stop offset="0%" stop-color="#2563eb"/>
      <stop offset="100%" stop-color="#60a5fa"/>
    </linearGradient>
  </defs>
  <rect x="4" y="4" width="56" height="56" rx="16" fill="#eff6ff"/>
  <rect x="4" y="4" width="56" height="56" rx="16" fill="none" stroke="#2563eb" stroke-width="1" opacity="0.15"/>
  <g transform="translate(14,14) scale(1.5)" stroke="url(#g70)" stroke-width="2" stroke-linecap="round" stroke-linejoin="round" fill="none">
<path d="m11 7-3 5h4l-3 5" />
  <path d="M14.856 6H16a2 2 0 0 1 2 2v8a2 2 0 0 1-2 2h-2.935" />
  <path d="M22 14v-4" />
  <path d="M5.14 18H4a2 2 0 0 1-2-2V8a2 2 0 0 1 2-2h2.936" />
  </g>
</svg>