<svg xmlns="http://www.w3.org/2000/svg" viewBox="0 0 64 64" fill="none">
  <defs>
    <linearGradient id="g66" x1="0" y1="0" x2="64" y2="64" gradientUnits="userSpaceOnUse">
      <stop offset="0%" stop-color="#2563eb"/>
      <stop offset="100%" stop-color="#60a5fa"/>
    </linearGradient>
  </defs>
  <rect x="4" y="4" width="56" height="56" rx="16" fill="#eff6ff"/>
  <rect x="4" y="4" width="56" height="56" rx="16" fill="none" stroke="#60a5fa" stroke-width="1" opacity="0.15"/>
  <g transform="translate(14,14) scale(1.5)" stroke="url(#g66)" stroke-width="2" stroke-linecap="round" stroke-linejoin="round" fill="none">
<path d="M2 8V6a2 2 0 0 1 2-2h16a2 2 0 0 1 2 2v12a2 2 0 0 1-2 2h-6" />
  <path d="M2 12a9 9 0 0 1 8 8" />
  <path d="M2 16a5 5 0 0 1 4 4" />
  <line x1="2" x2="2.01" y1="20" y2="20" />
  </g>
</svg>