<svg xmlns="http://www.w3.org/2000/svg" viewBox="0 0 64 64" fill="none">
  <defs>
    <linearGradient id="g62" x1="0" y1="0" x2="64" y2="64" gradientUnits="userSpaceOnUse">
      <stop offset="0%" stop-color="#2563eb"/>
      <stop offset="100%" stop-color="#60a5fa"/>
    </linearGradient>
  </defs>
  <rect x="4" y="4" width="56" height="56" rx="16" fill="#eff6ff"/>
  <rect x="4" y="4" width="56" height="56" rx="16" fill="none" stroke="#1e40af" stroke-width="1" opacity="0.15"/>
  <g transform="translate(14,14) scale(1.5)" stroke="url(#g62)" stroke-width="2" stroke-linecap="round" stroke-linejoin="round" fill="none">
<path d="M14 3a1 1 0 0 1 1 1v5a1 1 0 0 1-1 1" />
  <path d="M19 3a1 1 0 0 1 1 1v5a1 1 0 0 1-1 1" />
  <path d="m7 15 3 3" />
  <path d="m7 21 3-3H5a2 2 0 0 1-2-2v-2" />
  <rect x="14" y="14" width="7" height="7" rx="1" />
  <rect x="3" y="3" width="7" height="7" rx="1" />
  </g>
</svg>