<svg xmlns="http://www.w3.org/2000/svg" viewBox="0 0 64 64" fill="none">
  <defs>
    <linearGradient id="g12" x1="0" y1="0" x2="64" y2="64" gradientUnits="userSpaceOnUse">
      <stop offset="0%" stop-color="#2563eb"/>
      <stop offset="100%" stop-color="#60a5fa"/>
    </linearGradient>
  </defs>
  <rect x="4" y="4" width="56" height="56" rx="16" fill="#eff6ff"/>
  <rect x="4" y="4" width="56" height="56" rx="16" fill="none" stroke="#1e40af" stroke-width="1" opacity="0.15"/>
  <g transform="translate(14,14) scale(1.5)" stroke="url(#g12)" stroke-width="2" stroke-linecap="round" stroke-linejoin="round" fill="none">
<path d="M12 20v2" />
  <path d="M12 2v2" />
  <path d="M17 20v2" />
  <path d="M17 2v2" />
  <path d="M2 12h2" />
  <path d="M2 17h2" />
  <path d="M2 7h2" />
  <path d="M20 12h2" />
  <path d="M20 17h2" />
  <path d="M20 7h2" />
  <path d="M7 20v2" />
  <path d="M7 2v2" />
  <rect x="4" y="4" width="16" height="16" rx="2" />
  <rect x="8" y="8" width="8" height="8" rx="1" />
  </g>
</svg>