<svg xmlns="http://www.w3.org/2000/svg" viewBox="0 0 64 64" fill="none">
  <defs>
    <linearGradient id="g36" x1="0" y1="0" x2="64" y2="64" gradientUnits="userSpaceOnUse">
      <stop offset="0%" stop-color="#2563eb"/>
      <stop offset="100%" stop-color="#60a5fa"/>
    </linearGradient>
  </defs>
  <rect x="4" y="4" width="56" height="56" rx="16" fill="#eff6ff"/>
  <rect x="4" y="4" width="56" height="56" rx="16" fill="none" stroke="#60a5fa" stroke-width="1" opacity="0.15"/>
  <g transform="translate(14,14) scale(1.5)" stroke="url(#g36)" stroke-width="2" stroke-linecap="round" stroke-linejoin="round" fill="none">
<path d="M10 10 7 7" />
  <path d="m10 14-3 3" />
  <path d="m14 10 3-3" />
  <path d="m14 14 3 3" />
  <path d="M14.205 4.139a4 4 0 1 1 5.439 5.863" />
  <path d="M19.637 14a4 4 0 1 1-5.432 5.868" />
  <path d="M4.367 10a4 4 0 1 1 5.438-5.862" />
  <path d="M9.795 19.862a4 4 0 1 1-5.429-5.873" />
  <rect x="10" y="8" width="4" height="8" rx="1" />
  </g>
</svg>