<svg xmlns="http://www.w3.org/2000/svg" viewBox="0 0 64 64" fill="none">
  <defs>
    <linearGradient id="g38" x1="0" y1="0" x2="64" y2="64" gradientUnits="userSpaceOnUse">
      <stop offset="0%" stop-color="#2563eb"/>
      <stop offset="100%" stop-color="#60a5fa"/>
    </linearGradient>
  </defs>
  <rect x="4" y="4" width="56" height="56" rx="16" fill="#eff6ff"/>
  <rect x="4" y="4" width="56" height="56" rx="16" fill="none" stroke="#475569" stroke-width="1" opacity="0.15"/>
  <g transform="translate(14,14) scale(1.5)" stroke="url(#g38)" stroke-width="2" stroke-linecap="round" stroke-linejoin="round" fill="none">
<path d="M2 21V3" />
  <path d="M2 5h18a2 2 0 0 1 2 2v8a2 2 0 0 1-2 2H2.26" />
  <path d="M7 17v3a1 1 0 0 0 1 1h5a1 1 0 0 0 1-1v-3" />
  <circle cx="16" cy="11" r="2" />
  <circle cx="8" cy="11" r="2" />
  </g>
</svg>