<svg xmlns="http://www.w3.org/2000/svg" viewBox="0 0 64 64" fill="none">
  <defs>
    <linearGradient id="g77" x1="0" y1="0" x2="64" y2="64" gradientUnits="userSpaceOnUse">
      <stop offset="0%" stop-color="#1e40af"/>
      <stop offset="100%" stop-color="#60a5fa"/>
    </linearGradient>
  </defs>
  <rect x="4" y="4" width="56" height="56" rx="16" fill="#eff6ff"/>
  <rect x="4" y="4" width="56" height="56" rx="16" fill="none" stroke="#1e40af" stroke-width="1" opacity="0.15"/>
  <g transform="translate(14,14) scale(1.5)" stroke="url(#g77)" stroke-width="2" stroke-linecap="round" stroke-linejoin="round" fill="none">
<path d="M21 14h-1.343" />
  <path d="M9.128 3.47A9 9 0 0 1 21 12v3.343" />
  <path d="m2 2 20 20" />
  <path d="M20.414 20.414A2 2 0 0 1 19 21h-1a2 2 0 0 1-2-2v-3" />
  <path d="M3 14h3a2 2 0 0 1 2 2v3a2 2 0 0 1-2 2H5a2 2 0 0 1-2-2v-7a9 9 0 0 1 2.636-6.364" />
  </g>
</svg>