<svg xmlns="http://www.w3.org/2000/svg" viewBox="0 0 64 64" fill="none">
  <defs>
    <linearGradient id="g50" x1="0" y1="0" x2="64" y2="64" gradientUnits="userSpaceOnUse">
      <stop offset="0%" stop-color="#2563eb"/>
      <stop offset="100%" stop-color="#60a5fa"/>
    </linearGradient>
  </defs>
  <rect x="4" y="4" width="56" height="56" rx="16" fill="#eff6ff"/>
  <rect x="4" y="4" width="56" height="56" rx="16" fill="none" stroke="#2563eb" stroke-width="1" opacity="0.15"/>
  <g transform="translate(14,14) scale(1.5)" stroke="url(#g50)" stroke-width="2" stroke-linecap="round" stroke-linejoin="round" fill="none">
<path d="M21 17a2 2 0 0 0-2-2H5a2 2 0 0 0-2 2v2a2 2 0 0 0 2 2h14a2 2 0 0 0 2-2v-2Z" />
  <path d="M6 15v-2" />
  <path d="M12 15V9" />
  <circle cx="12" cy="6" r="3" />
  </g>
</svg>