<svg xmlns="http://www.w3.org/2000/svg" viewBox="0 0 64 64" fill="none">
  <defs>
    <linearGradient id="g73" x1="0" y1="0" x2="64" y2="64" gradientUnits="userSpaceOnUse">
      <stop offset="0%" stop-color="#1e40af"/>
      <stop offset="100%" stop-color="#60a5fa"/>
    </linearGradient>
  </defs>
  <rect x="4" y="4" width="56" height="56" rx="16" fill="#eff6ff"/>
  <rect x="4" y="4" width="56" height="56" rx="16" fill="none" stroke="#475569" stroke-width="1" opacity="0.15"/>
  <g transform="translate(14,14) scale(1.5)" stroke="url(#g73)" stroke-width="2" stroke-linecap="round" stroke-linejoin="round" fill="none">
<path d="M12 19v3" />
  <path d="M15 9.34V5a3 3 0 0 0-5.68-1.33" />
  <path d="M16.95 16.95A7 7 0 0 1 5 12v-2" />
  <path d="M18.89 13.23A7 7 0 0 0 19 12v-2" />
  <path d="m2 2 20 20" />
  <path d="M9 9v3a3 3 0 0 0 5.12 2.12" />
  </g>
</svg>