<svg xmlns="http://www.w3.org/2000/svg" viewBox="0 0 64 64" fill="none">
  <defs>
    <linearGradient id="g61" x1="0" y1="0" x2="64" y2="64" gradientUnits="userSpaceOnUse">
      <stop offset="0%" stop-color="#1e40af"/>
      <stop offset="100%" stop-color="#60a5fa"/>
    </linearGradient>
  </defs>
  <rect x="4" y="4" width="56" height="56" rx="16" fill="#eff6ff"/>
  <rect x="4" y="4" width="56" height="56" rx="16" fill="none" stroke="#60a5fa" stroke-width="1" opacity="0.15"/>
  <g transform="translate(14,14) scale(1.5)" stroke="url(#g61)" stroke-width="2" stroke-linecap="round" stroke-linejoin="round" fill="none">
<path d="M12 17v4" />
  <path d="M17 17H4a2 2 0 0 1-2-2V5a2 2 0 0 1 1.184-1.826" />
  <path d="m2 2 20 20" />
  <path d="M8 21h8" />
  <path d="M8.656 3H20a2 2 0 0 1 2 2v10a2 2 0 0 1-.293 1.042" />
  </g>
</svg>