<svg xmlns="http://www.w3.org/2000/svg" viewBox="0 0 64 64" fill="none">
  <defs>
    <linearGradient id="g34" x1="0" y1="0" x2="64" y2="64" gradientUnits="userSpaceOnUse">
      <stop offset="0%" stop-color="#2563eb"/>
      <stop offset="100%" stop-color="#60a5fa"/>
    </linearGradient>
  </defs>
  <rect x="4" y="4" width="56" height="56" rx="16" fill="#eff6ff"/>
  <rect x="4" y="4" width="56" height="56" rx="16" fill="none" stroke="#94a3b8" stroke-width="1" opacity="0.15"/>
  <g transform="translate(14,14) scale(1.5)" stroke="url(#g34)" stroke-width="2" stroke-linecap="round" stroke-linejoin="round" fill="none">
<path d="M5 7 3 5" />
  <path d="M9 6V3" />
  <path d="m13 7 2-2" />
  <circle cx="9" cy="13" r="3" />
  <path d="M11.83 12H20a2 2 0 0 1 2 2v4a2 2 0 0 1-2 2H4a2 2 0 0 1-2-2v-4a2 2 0 0 1 2-2h2.17" />
  <path d="M16 16h2" />
  </g>
</svg>