<svg xmlns="http://www.w3.org/2000/svg" viewBox="0 0 64 64" fill="none">
  <defs>
    <linearGradient id="g75" x1="0" y1="0" x2="64" y2="64" gradientUnits="userSpaceOnUse">
      <stop offset="0%" stop-color="#1e40af"/>
      <stop offset="100%" stop-color="#60a5fa"/>
    </linearGradient>
  </defs>
  <rect x="4" y="4" width="56" height="56" rx="16" fill="#eff6ff"/>
  <rect x="4" y="4" width="56" height="56" rx="16" fill="none" stroke="#2563eb" stroke-width="1" opacity="0.15"/>
  <g transform="translate(14,14) scale(1.5)" stroke="url(#g75)" stroke-width="2" stroke-linecap="round" stroke-linejoin="round" fill="none">
<path d="M10.66 6H14a2 2 0 0 1 2 2v2.5l5.248-3.062A.5.5 0 0 1 22 7.87v8.196" />
  <path d="M16 16a2 2 0 0 1-2 2H4a2 2 0 0 1-2-2V8a2 2 0 0 1 2-2h2" />
  <path d="m2 2 20 20" />
  </g>
</svg>