<svg xmlns="http://www.w3.org/2000/svg" viewBox="0 0 64 64">
  <defs>
    <linearGradient id="g1" x1="0" y1="1" x2="0" y2="0">
      <stop offset="0%" stop-color="#166534"/>
      <stop offset="100%" stop-color="#4ade80"/>
    </linearGradient>
    <linearGradient id="g2" x1="0" y1="0" x2="1" y2="1">
      <stop offset="0%" stop-color="#16a34a"/>
      <stop offset="100%" stop-color="#86efac"/>
    </linearGradient>
  </defs>
  <circle cx="32" cy="32" r="30" fill="#f0fdf4" stroke="#bbf7d0" stroke-width="1.5"/>
  <!-- 아두이노 보드 -->
  <rect x="12" y="16" width="28" height="20" rx="2" fill="url(#g1)"/>
  <rect x="14" y="18" width="10" height="7" rx="1" fill="#166534"/>
  <rect x="15" y="19" width="8" height="5" rx=".5" fill="#052e16"/>
  <!-- 핀 헤더 -->
  <rect x="13" y="33" width="1.5" height="3" fill="#fbbf24"/>
  <rect x="16" y="33" width="1.5" height="3" fill="#fbbf24"/>
  <rect x="19" y="33" width="1.5" height="3" fill="#fbbf24"/>
  <rect x="22" y="33" width="1.5" height="3" fill="#fbbf24"/>
  <rect x="25" y="33" width="1.5" height="3" fill="#fbbf24"/>
  <!-- USB 포트 -->
  <rect x="33" y="22" width="7" height="5" rx="1" fill="#94a3b8"/>
  <rect x="34" y="23.5" width="5" height="2" rx=".5" fill="#64748b"/>
  <!-- LED -->
  <circle cx="30" y="20" r="1.5" fill="#ef4444"/>
  <circle cx="34" y="20" r="1.5" fill="#22c55e"/>
  <!-- 점퍼 와이어 -->
  <path d="M15 36 Q10 44 20 48" fill="none" stroke="#ef4444" stroke-width="1.5" stroke-linecap="round"/>
  <path d="M21 36 Q18 42 28 48" fill="none" stroke="#3b82f6" stroke-width="1.5" stroke-linecap="round"/>
  <path d="M27 36 Q30 44 38 46" fill="none" stroke="#eab308" stroke-width="1.5" stroke-linecap="round"/>
  <!-- LED 전구 -->
  <circle cx="20" cy="49" r="3" fill="#fde047" stroke="#eab308" stroke-width="1"/>
  <line x1="20" y1="52" x2="19" y2="54" stroke="#eab308" stroke-width="1" stroke-linecap="round"/>
  <line x1="20" y1="52" x2="21" y2="54" stroke="#eab308" stroke-width="1" stroke-linecap="round"/>
  <!-- 센서 -->
  <rect x="42" y="30" width="10" height="14" rx="2" fill="url(#g2)"/>
  <circle cx="47" cy="35" r="3" fill="#dcfce7" stroke="#166534" stroke-width="1"/>
  <rect x="44" y="40" width="2" height="2" rx=".5" fill="#166534"/>
  <rect x="48" y="40" width="2" height="2" rx=".5" fill="#166534"/>
</svg>