<svg xmlns="http://www.w3.org/2000/svg" viewBox="0 0 64 64">
  <defs>
    <linearGradient id="g1" x1="0" y1="1" x2="0" y2="0">
      <stop offset="0%" stop-color="#6b21a8"/>
      <stop offset="100%" stop-color="#c084fc"/>
    </linearGradient>
    <linearGradient id="g2" x1="0" y1="0" x2="1" y2="1">
      <stop offset="0%" stop-color="#7c3aed"/>
      <stop offset="100%" stop-color="#e9d5ff"/>
    </linearGradient>
    <linearGradient id="g3" x1="0" y1="0" x2="0" y2="1">
      <stop offset="0%" stop-color="#a855f7"/>
      <stop offset="100%" stop-color="#d8b4fe"/>
    </linearGradient>
  </defs>
  <circle cx="32" cy="32" r="30" fill="#faf5ff" stroke="#e9d5ff" stroke-width="1.5"/>
  <!-- 삼각형 -->
  <polygon points="20,12 8,32 32,32" fill="url(#g1)" opacity=".85"/>
  <!-- 원 -->
  <circle cx="44" cy="20" r="10" fill="url(#g2)" opacity=".8"/>
  <!-- 사각형 -->
  <rect x="36" y="34" width="18" height="18" rx="2" fill="url(#g3)" opacity=".8"/>
  <!-- 마름모 -->
  <polygon points="18,38 10,48 18,58 26,48" fill="url(#g1)" opacity=".7"/>
  <!-- 3D 큐브 라인 -->
  <path d="M30 42 L38 38 L46 42 L46 52 L38 56 L30 52Z" fill="none" stroke="#7c3aed" stroke-width="1" opacity=".4"/>
  <line x1="38" y1="38" x2="38" y2="48" stroke="#7c3aed" stroke-width="1" opacity=".4"/>
  <line x1="30" y1="42" x2="38" y2="48" stroke="#7c3aed" stroke-width="1" opacity=".4"/>
  <line x1="46" y1="42" x2="38" y2="48" stroke="#7c3aed" stroke-width="1" opacity=".4"/>
  <!-- 점선 원 -->
  <circle cx="20" cy="24" r="3" fill="none" stroke="#c084fc" stroke-width="1" stroke-dasharray="2 1.5"/>
</svg>