<svg xmlns="http://www.w3.org/2000/svg" viewBox="0 0 64 64">
  <defs>
    <linearGradient id="g1" x1="0" y1="1" x2="0" y2="0">
      <stop offset="0%" stop-color="#1e40af"/>
      <stop offset="100%" stop-color="#60a5fa"/>
    </linearGradient>
    <linearGradient id="g2" x1="0" y1="1" x2="0" y2="0">
      <stop offset="0%" stop-color="#2563eb"/>
      <stop offset="100%" stop-color="#93c5fd"/>
    </linearGradient>
  </defs>
  <circle cx="32" cy="32" r="30" fill="#eff6ff" stroke="#bfdbfe" stroke-width="1.5"/>
  <!-- 모니터 -->
  <rect x="14" y="14" width="26" height="18" rx="2" fill="url(#g1)" stroke="#1e40af" stroke-width="1"/>
  <rect x="16" y="16" width="22" height="13" rx="1" fill="#dbeafe"/>
  <!-- 화면 내용 -->
  <rect x="18" y="18" width="8" height="2" rx="1" fill="#60a5fa"/>
  <rect x="18" y="21.5" width="12" height="1.5" rx=".75" fill="#93c5fd"/>
  <rect x="18" y="24.5" width="6" height="1.5" rx=".75" fill="#bfdbfe"/>
  <!-- 모니터 받침 -->
  <rect x="24" y="32" width="6" height="3" fill="#93c5fd"/>
  <rect x="21" y="35" width="12" height="2" rx="1" fill="#60a5fa"/>
  <!-- 키보드 -->
  <rect x="15" y="40" width="20" height="8" rx="2" fill="url(#g2)"/>
  <rect x="17" y="42" width="3" height="1.5" rx=".5" fill="#dbeafe"/>
  <rect x="21.5" y="42" width="3" height="1.5" rx=".5" fill="#dbeafe"/>
  <rect x="26" y="42" width="3" height="1.5" rx=".5" fill="#dbeafe"/>
  <rect x="18" y="45" width="10" height="1.5" rx=".5" fill="#dbeafe"/>
  <!-- 마우스 -->
  <rect x="40" y="42" width="8" height="11" rx="4" fill="url(#g2)" stroke="#1e40af" stroke-width=".8"/>
  <line x1="44" y1="42" x2="44" y2="46" stroke="#dbeafe" stroke-width="1"/>
  <!-- 장식 요소 -->
  <circle cx="50" cy="18" r="2" fill="#60a5fa" opacity=".4"/>
  <circle cx="53" cy="24" r="1.5" fill="#93c5fd" opacity=".4"/>
</svg>