<svg xmlns="http://www.w3.org/2000/svg" viewBox="0 0 64 64">
  <defs>
    <linearGradient id="g1" x1="0" y1="1" x2="0" y2="0">
      <stop offset="0%" stop-color="#0e7490"/>
      <stop offset="100%" stop-color="#22d3ee"/>
    </linearGradient>
    <linearGradient id="g2" x1="0" y1="0" x2="1" y2="1">
      <stop offset="0%" stop-color="#0891b2"/>
      <stop offset="100%" stop-color="#67e8f9"/>
    </linearGradient>
  </defs>
  <circle cx="32" cy="32" r="30" fill="#ecfeff" stroke="#a5f3fc" stroke-width="1.5"/>
  <!-- 시작 원 -->
  <ellipse cx="32" cy="10" rx="10" ry="5" fill="url(#g1)"/>
  <text x="32" y="12" font-family="sans-serif" font-size="4.5" fill="#fff" text-anchor="middle">시작</text>
  <!-- 화살표 아래 -->
  <line x1="32" y1="15" x2="32" y2="20" stroke="#0891b2" stroke-width="1.5"/>
  <polygon points="30,19 32,22 34,19" fill="#0891b2"/>
  <!-- 처리 상자 -->
  <rect x="20" y="22" width="24" height="8" rx="2" fill="url(#g2)"/>
  <text x="32" y="27.5" font-family="sans-serif" font-size="4" fill="#fff" text-anchor="middle">입력</text>
  <!-- 화살표 아래 -->
  <line x1="32" y1="30" x2="32" y2="34" stroke="#0891b2" stroke-width="1.5"/>
  <polygon points="30,33 32,36 34,33" fill="#0891b2"/>
  <!-- 결정 마름모 -->
  <polygon points="32,36 46,43 32,50 18,43" fill="url(#g1)" stroke="#0e7490" stroke-width=".8"/>
  <text x="32" y="44.5" font-family="sans-serif" font-size="4" fill="#fff" text-anchor="middle">조건?</text>
  <!-- Yes 경로 -->
  <line x1="18" y1="43" x2="10" y2="43" stroke="#0891b2" stroke-width="1.5"/>
  <text x="14" y="41" font-family="sans-serif" font-size="3.5" fill="#0891b2">Y</text>
  <line x1="10" y1="43" x2="10" y2="56" stroke="#0891b2" stroke-width="1.5"/>
  <rect x="4" y="53" width="12" height="6" rx="1.5" fill="url(#g2)"/>
  <text x="10" y="57.5" font-family="sans-serif" font-size="3.5" fill="#fff" text-anchor="middle">처리A</text>
  <!-- No 경로 -->
  <line x1="46" y1="43" x2="54" y2="43" stroke="#0891b2" stroke-width="1.5"/>
  <text x="50" y="41" font-family="sans-serif" font-size="3.5" fill="#0891b2">N</text>
  <line x1="54" y1="43" x2="54" y2="56" stroke="#0891b2" stroke-width="1.5"/>
  <rect x="48" y="53" width="12" height="6" rx="1.5" fill="url(#g2)"/>
  <text x="54" y="57.5" font-family="sans-serif" font-size="3.5" fill="#fff" text-anchor="middle">처리B</text>
</svg>