<svg xmlns="http://www.w3.org/2000/svg" viewBox="0 0 64 64">
  <defs>
    <linearGradient id="g1" x1="0" y1="1" x2="0" y2="0">
      <stop offset="0%" stop-color="#1e40af"/>
      <stop offset="100%" stop-color="#60a5fa"/>
    </linearGradient>
    <linearGradient id="g2" x1="0" y1="0" x2="1" y2="1">
      <stop offset="0%" stop-color="#7c3aed"/>
      <stop offset="100%" stop-color="#c4b5fd"/>
    </linearGradient>
  </defs>
  <circle cx="32" cy="32" r="30" fill="#eff6ff" stroke="#bfdbfe" stroke-width="1.5"/>
  <!-- 뇌 윤곽 (좌반구) -->
  <path d="M32 14 Q20 14 16 22 Q12 30 18 36 Q14 40 20 44 Q26 48 32 46" fill="url(#g1)" opacity=".85"/>
  <!-- 뇌 윤곽 (우반구) -->
  <path d="M32 14 Q44 14 48 22 Q52 30 46 36 Q50 40 44 44 Q38 48 32 46" fill="url(#g2)" opacity=".85"/>
  <!-- 회로 패턴 (좌) -->
  <circle cx="22" cy="24" r="2" fill="none" stroke="#dbeafe" stroke-width="1"/>
  <circle cx="22" cy="24" r=".8" fill="#dbeafe"/>
  <line x1="24" y1="24" x2="28" y2="24" stroke="#dbeafe" stroke-width=".8"/>
  <circle cx="20" cy="34" r="2" fill="none" stroke="#dbeafe" stroke-width="1"/>
  <circle cx="20" cy="34" r=".8" fill="#dbeafe"/>
  <line x1="22" y1="34" x2="28" y2="30" stroke="#dbeafe" stroke-width=".8"/>
  <circle cx="26" cy="40" r="1.5" fill="none" stroke="#dbeafe" stroke-width="1"/>
  <circle cx="26" cy="40" r=".6" fill="#dbeafe"/>
  <!-- 회로 패턴 (우) -->
  <circle cx="42" cy="24" r="2" fill="none" stroke="#e9d5ff" stroke-width="1"/>
  <circle cx="42" cy="24" r=".8" fill="#e9d5ff"/>
  <line x1="40" y1="24" x2="36" y2="24" stroke="#e9d5ff" stroke-width=".8"/>
  <circle cx="44" cy="34" r="2" fill="none" stroke="#e9d5ff" stroke-width="1"/>
  <circle cx="44" cy="34" r=".8" fill="#e9d5ff"/>
  <line x1="42" y1="34" x2="36" y2="30" stroke="#e9d5ff" stroke-width=".8"/>
  <circle cx="38" cy="40" r="1.5" fill="none" stroke="#e9d5ff" stroke-width="1"/>
  <circle cx="38" cy="40" r=".6" fill="#e9d5ff"/>
  <!-- 중앙 연결 -->
  <line x1="32" y1="18" x2="32" y2="42" stroke="#fff" stroke-width=".8" opacity=".5"/>
  <!-- 데이터 포인트 -->
  <circle cx="32" cy="22" r="1.5" fill="#fff"/>
  <circle cx="32" cy="30" r="2" fill="#fbbf24"/>
  <circle cx="32" cy="38" r="1.5" fill="#fff"/>
  <!-- AI 텍스트 -->
  <text x="32" y="56" font-family="sans-serif" font-size="6" font-weight="bold" fill="#2563eb" text-anchor="middle">AI</text>
</svg>