<svg xmlns="http://www.w3.org/2000/svg" viewBox="0 0 64 64">
  <defs>
    <linearGradient id="g1" x1="0" y1="1" x2="0" y2="0">
      <stop offset="0%" stop-color="#334155"/>
      <stop offset="100%" stop-color="#94a3b8"/>
    </linearGradient>
    <linearGradient id="g2" x1="0" y1="0" x2="1" y2="1">
      <stop offset="0%" stop-color="#475569"/>
      <stop offset="100%" stop-color="#cbd5e1"/>
    </linearGradient>
  </defs>
  <circle cx="32" cy="32" r="30" fill="#f8fafc" stroke="#e2e8f0" stroke-width="1.5"/>
  <!-- 체크마크 원 -->
  <circle cx="16" cy="16" r="8" fill="#22c55e" opacity=".85"/>
  <path d="M12 16 L15 19 L21 13" fill="none" stroke="#fff" stroke-width="2" stroke-linecap="round" stroke-linejoin="round"/>
  <!-- X 원 -->
  <circle cx="48" cy="16" r="8" fill="#ef4444" opacity=".85"/>
  <line x1="44" y1="12" x2="52" y2="20" stroke="#fff" stroke-width="2" stroke-linecap="round"/>
  <line x1="52" y1="12" x2="44" y2="20" stroke="#fff" stroke-width="2" stroke-linecap="round"/>
  <!-- 화살표 우 -->
  <rect x="8" y="30" width="16" height="6" rx="3" fill="url(#g1)"/>
  <polygon points="24,29 30,33 24,37" fill="url(#g1)"/>
  <!-- 느낌표 -->
  <circle cx="40" cy="33" r="8" fill="url(#g2)"/>
  <rect x="39" y="28" width="2" height="6" rx="1" fill="#fff"/>
  <circle cx="40" cy="37" r="1" fill="#fff"/>
  <!-- 물음표 -->
  <circle cx="54" cy="33" r="6" fill="#3b82f6" opacity=".85"/>
  <text x="54" y="36" font-family="sans-serif" font-size="9" fill="#fff" text-anchor="middle" font-weight="bold">?</text>
  <!-- 별 -->
  <polygon points="16,48 18,44 20,48 24,48 21,51 22,55 18,52 14,55 15,51 12,48" fill="#fbbf24"/>
  <!-- 하트 -->
  <path d="M32 52 Q32 46 27 46 Q22 46 22 50 Q22 54 32 60 Q42 54 42 50 Q42 46 37 46 Q32 46 32 52Z" fill="#ec4899" opacity=".85"/>
  <!-- 정보 아이콘 -->
  <circle cx="50" cy="50" r="6" fill="url(#g1)"/>
  <rect x="49" y="48.5" width="2" height="5" rx="1" fill="#fff"/>
  <circle cx="50" cy="46.5" r="1" fill="#fff"/>
</svg>