<svg xmlns="http://www.w3.org/2000/svg" viewBox="0 0 64 64">
  <defs>
    <linearGradient id="g1" x1="0" y1="1" x2="0" y2="0">
      <stop offset="0%" stop-color="#4c1d95"/>
      <stop offset="100%" stop-color="#8b5cf6"/>
    </linearGradient>
    <linearGradient id="g2" x1="0" y1="0" x2="1" y2="1">
      <stop offset="0%" stop-color="#6d28d9"/>
      <stop offset="100%" stop-color="#c4b5fd"/>
    </linearGradient>
  </defs>
  <circle cx="32" cy="32" r="30" fill="#f5f3ff" stroke="#ddd6fe" stroke-width="1.5"/>
  <!-- VR 헤드셋 -->
  <rect x="8" y="22" width="48" height="22" rx="6" fill="url(#g1)"/>
  <!-- 렌즈 -->
  <circle cx="24" cy="33" r="7" fill="#1e1b4b" stroke="#8b5cf6" stroke-width="1.5"/>
  <circle cx="40" cy="33" r="7" fill="#1e1b4b" stroke="#8b5cf6" stroke-width="1.5"/>
  <!-- 렌즈 반사 -->
  <circle cx="22" cy="31" r="2" fill="#c4b5fd" opacity=".3"/>
  <circle cx="38" cy="31" r="2" fill="#c4b5fd" opacity=".3"/>
  <!-- 코 패드 -->
  <path d="M30 38 Q32 42 34 38" fill="#4c1d95" stroke="none"/>
  <!-- 스트랩 -->
  <path d="M8 28 Q4 28 4 33 Q4 38 8 38" fill="none" stroke="url(#g2)" stroke-width="3" stroke-linecap="round"/>
  <path d="M56 28 Q60 28 60 33 Q60 38 56 38" fill="none" stroke="url(#g2)" stroke-width="3" stroke-linecap="round"/>
  <!-- VR 세계 효과 -->
  <rect x="14" y="10" width="4" height="4" rx="1" fill="#a78bfa" opacity=".4" transform="rotate(15,16,12)"/>
  <polygon points="32,8 34,12 30,12" fill="#c084fc" opacity=".4"/>
  <circle cx="44" cy="12" r="2.5" fill="#ddd6fe" opacity=".4"/>
  <rect x="48" y="14" width="3" height="3" rx=".5" fill="#a78bfa" opacity=".3"/>
  <!-- 그리드 바닥 -->
  <line x1="8" y1="52" x2="56" y2="52" stroke="#ddd6fe" stroke-width=".8"/>
  <line x1="12" y1="48" x2="52" y2="48" stroke="#ddd6fe" stroke-width=".5"/>
  <line x1="16" y1="52" x2="20" y2="48" stroke="#ddd6fe" stroke-width=".5"/>
  <line x1="28" y1="52" x2="28" y2="48" stroke="#ddd6fe" stroke-width=".5"/>
  <line x1="40" y1="52" x2="36" y2="48" stroke="#ddd6fe" stroke-width=".5"/>
  <line x1="48" y1="52" x2="44" y2="48" stroke="#ddd6fe" stroke-width=".5"/>
  <!-- VR 텍스트 -->
  <text x="32" y="60" font-family="sans-serif" font-size="7" font-weight="bold" fill="#6d28d9" text-anchor="middle">VR</text>
</svg>