<svg xmlns="http://www.w3.org/2000/svg" viewBox="0 0 64 64">
  <defs>
    <linearGradient id="g1" x1="0" y1="1" x2="0" y2="0">
      <stop offset="0%" stop-color="#0369a1"/>
      <stop offset="100%" stop-color="#38bdf8"/>
    </linearGradient>
    <linearGradient id="g2" x1="0" y1="0" x2="0" y2="1">
      <stop offset="0%" stop-color="#06b6d4"/>
      <stop offset="100%" stop-color="#67e8f9"/>
    </linearGradient>
  </defs>
  <circle cx="32" cy="32" r="30" fill="#ecfeff" stroke="#a5f3fc" stroke-width="1.5"/>
  <!-- 프린터 본체 -->
  <rect x="10" y="14" width="44" height="36" rx="3" fill="url(#g1)"/>
  <rect x="12" y="16" width="40" height="12" rx="2" fill="#0c4a6e"/>
  <!-- 노즐 -->
  <rect x="28" y="16" width="8" height="4" rx="1" fill="#94a3b8"/>
  <polygon points="30,20 34,20 32,24" fill="#fb923c"/>
  <!-- 프린팅 레이어들 -->
  <rect x="22" y="36" width="20" height="3" rx="1" fill="url(#g2)" opacity=".5"/>
  <rect x="22" y="33" width="20" height="3" rx="1" fill="url(#g2)" opacity=".6"/>
  <rect x="24" y="30" width="16" height="3" rx="1" fill="url(#g2)" opacity=".7"/>
  <rect x="26" y="27" width="12" height="3" rx="1" fill="url(#g2)" opacity=".8"/>
  <rect x="28" y="24" width="8" height="3" rx="1" fill="url(#g2)"/>
  <!-- 가이드 레일 -->
  <line x1="12" y1="16" x2="12" y2="48" stroke="#0c4a6e" stroke-width="2"/>
  <line x1="52" y1="16" x2="52" y2="48" stroke="#0c4a6e" stroke-width="2"/>
  <!-- 베드 -->
  <rect x="14" y="42" width="36" height="4" rx="1" fill="#164e63"/>
  <!-- 필라멘트 롤 -->
  <circle cx="56" cy="12" r="5" fill="url(#g2)" opacity=".7"/>
  <circle cx="56" cy="12" r="2" fill="#ecfeff"/>
  <line x1="56" y1="17" x2="32" y2="18" stroke="#67e8f9" stroke-width=".8"/>
  <!-- 3D 텍스트 -->
  <text x="32" y="58" font-family="sans-serif" font-size="6" font-weight="bold" fill="#0891b2" text-anchor="middle">3D</text>
</svg>