<svg xmlns="http://www.w3.org/2000/svg" viewBox="0 0 64 64">
  <defs>
    <linearGradient id="g1" x1="0" y1="1" x2="0" y2="0">
      <stop offset="0%" stop-color="#1e40af"/>
      <stop offset="100%" stop-color="#38bdf8"/>
    </linearGradient>
    <linearGradient id="g2" x1="0" y1="0" x2="1" y2="1">
      <stop offset="0%" stop-color="#15803d"/>
      <stop offset="100%" stop-color="#4ade80"/>
    </linearGradient>
  </defs>
  <circle cx="32" cy="32" r="30" fill="#f0fdf4" stroke="#bbf7d0" stroke-width="1.5"/>
  <!-- 지구 -->
  <circle cx="32" cy="28" r="18" fill="url(#g1)"/>
  <!-- 대륙 -->
  <path d="M24 18 Q28 16 32 18 Q36 20 34 24 Q32 26 28 24 Q24 22 24 18Z" fill="url(#g2)"/>
  <path d="M36 22 Q40 20 44 24 Q46 28 42 30 Q38 30 36 26Z" fill="url(#g2)"/>
  <path d="M22 28 Q20 32 24 36 Q28 38 32 36 Q30 32 26 30Z" fill="url(#g2)"/>
  <path d="M36 32 Q40 34 42 38 Q38 40 34 38Z" fill="url(#g2)"/>
  <!-- 구름 -->
  <ellipse cx="26" cy="20" rx="4" ry="1.5" fill="#fff" opacity=".4"/>
  <ellipse cx="40" cy="32" rx="3" ry="1.2" fill="#fff" opacity=".4"/>
  <!-- 나뭇잎 (좌) -->
  <path d="M8 42 Q4 36 10 34 Q16 36 12 42Z" fill="#22c55e"/>
  <line x1="10" y1="34" x2="10" y2="42" stroke="#166534" stroke-width=".5"/>
  <path d="M10 42 L10 50" fill="none" stroke="#166534" stroke-width="1"/>
  <!-- 나뭇잎 (우) -->
  <path d="M56 42 Q60 36 54 34 Q48 36 52 42Z" fill="#4ade80"/>
  <line x1="54" y1="34" x2="54" y2="42" stroke="#166534" stroke-width=".5"/>
  <path d="M54 42 L54 50" fill="none" stroke="#166534" stroke-width="1"/>
  <!-- 재활용 화살표 -->
  <path d="M26 54 L32 48 L38 54" fill="none" stroke="#16a34a" stroke-width="2" stroke-linecap="round" stroke-linejoin="round"/>
  <path d="M38 54 L38 58 L26 58 L26 54" fill="none" stroke="#16a34a" stroke-width="2" stroke-linecap="round" stroke-linejoin="round"/>
  <polygon points="32,46 30,50 34,50" fill="#16a34a"/>
</svg>