<svg xmlns="http://www.w3.org/2000/svg" viewBox="0 0 64 64">
  <defs>
    <linearGradient id="g1" x1="0" y1="1" x2="0" y2="0">
      <stop offset="0%" stop-color="#c2410c"/>
      <stop offset="100%" stop-color="#fb923c"/>
    </linearGradient>
    <linearGradient id="g2" x1="0" y1="1" x2="0" y2="0">
      <stop offset="0%" stop-color="#1d4ed8"/>
      <stop offset="100%" stop-color="#60a5fa"/>
    </linearGradient>
    <linearGradient id="g3" x1="0" y1="1" x2="0" y2="0">
      <stop offset="0%" stop-color="#15803d"/>
      <stop offset="100%" stop-color="#4ade80"/>
    </linearGradient>
    <linearGradient id="g4" x1="0" y1="1" x2="0" y2="0">
      <stop offset="0%" stop-color="#7e22ce"/>
      <stop offset="100%" stop-color="#c084fc"/>
    </linearGradient>
  </defs>
  <circle cx="32" cy="32" r="30" fill="#fff7ed" stroke="#fed7aa" stroke-width="1.5"/>
  <!-- 블록 1: 시작 (주황) -->
  <path d="M12 10 h28 v8 h-4 v2 h-6 v-2 h-18 z" fill="url(#g1)" rx="2"/>
  <text x="22" y="16.5" font-family="sans-serif" font-size="4.5" fill="#fff" text-anchor="middle">시작하면</text>
  <!-- 블록 2: 반복 (파랑) -->
  <path d="M12 20 h4 v-2 h6 v2 h16 v8 h-4 v2 h-6 v-2 h-16 z" fill="url(#g2)"/>
  <text x="24" y="26.5" font-family="sans-serif" font-size="4" fill="#fff" text-anchor="middle">10번 반복</text>
  <!-- 블록 3: 이동 (초록) -->
  <path d="M18 30 h4 v-2 h6 v2 h12 v8 h-4 v2 h-6 v-2 h-12 z" fill="url(#g3)"/>
  <text x="28" y="36.5" font-family="sans-serif" font-size="4" fill="#fff" text-anchor="middle">앞으로</text>
  <!-- 블록 4: 회전 (보라) -->
  <path d="M18 40 h4 v-2 h6 v2 h12 v8 h-4 v2 h-6 v-2 h-12 z" fill="url(#g4)"/>
  <text x="28" y="46.5" font-family="sans-serif" font-size="4" fill="#fff" text-anchor="middle">90° 회전</text>
  <!-- 블록 5: 끝 반복 (파랑) -->
  <path d="M12 50 h4 v-2 h6 v2 h16 v6 h-26 z" fill="url(#g2)"/>
  <!-- 커서 손 -->
  <g transform="translate(42,28)">
    <path d="M4 0 L4 10 L8 8 L10 14 L13 13 L11 7 L16 7 L4 0Z" fill="#fbbf24" stroke="#92400e" stroke-width=".8"/>
  </g>
</svg>