<svg xmlns="http://www.w3.org/2000/svg" viewBox="0 0 64 64">
  <defs>
    <linearGradient id="g1" x1="0" y1="1" x2="0" y2="0">
      <stop offset="0%" stop-color="#1d4ed8"/>
      <stop offset="100%" stop-color="#60a5fa"/>
    </linearGradient>
    <linearGradient id="g2" x1="0" y1="1" x2="0" y2="0">
      <stop offset="0%" stop-color="#15803d"/>
      <stop offset="100%" stop-color="#4ade80"/>
    </linearGradient>
    <linearGradient id="g3" x1="0" y1="1" x2="0" y2="0">
      <stop offset="0%" stop-color="#b45309"/>
      <stop offset="100%" stop-color="#fbbf24"/>
    </linearGradient>
    <linearGradient id="g4" x1="0" y1="1" x2="0" y2="0">
      <stop offset="0%" stop-color="#be185d"/>
      <stop offset="100%" stop-color="#f9a8d4"/>
    </linearGradient>
  </defs>
  <circle cx="32" cy="32" r="30" fill="#f8fafc" stroke="#e2e8f0" stroke-width="1.5"/>
  <!-- 퍼즐 조각 1 (좌상, 파랑) -->
  <path d="M10 10 L28 10 L28 16 Q24 16 24 20 Q24 24 28 24 L28 30 L16 30 Q16 26 12 26 Q8 26 8 30 L10 30 L10 10Z" fill="url(#g1)" opacity=".9"/>
  <!-- 퍼즐 조각 2 (우상, 초록) -->
  <path d="M30 10 L52 10 L52 30 Q48 30 48 26 Q48 22 52 22 L52 10 L30 10 L30 16 Q34 16 34 20 Q34 24 30 24 L30 10Z" fill="url(#g2)" opacity=".9"/>
  <!-- 퍼즐 조각 3 (좌하, 노랑) -->
  <path d="M10 32 L28 32 L28 38 Q24 38 24 42 Q24 46 28 46 L28 54 L10 54 L10 32Z" fill="url(#g3)" opacity=".9"/>
  <path d="M10 32 Q14 32 14 36 Q14 40 10 40" fill="url(#g3)" opacity=".9"/>
  <!-- 퍼즐 조각 4 (우하, 핑크) - 분리됨 -->
  <g transform="translate(4,4)">
    <path d="M30 32 L52 32 L52 54 L30 54 L30 46 Q34 46 34 42 Q34 38 30 38 L30 32Z" fill="url(#g4)" opacity=".85"/>
    <path d="M52 32 Q48 32 48 36 Q48 40 52 40" fill="url(#g4)" opacity=".85"/>
  </g>
  <!-- 이동 화살표 -->
  <path d="M48 28 L42 34" fill="none" stroke="#94a3b8" stroke-width="1.5" stroke-linecap="round" stroke-dasharray="2 2"/>
  <polygon points="41,32 40,36 44,35" fill="#94a3b8"/>
</svg>