<svg xmlns="http://www.w3.org/2000/svg" viewBox="0 0 64 64">
  <defs>
    <linearGradient id="g1" x1="0" y1="1" x2="0" y2="0">
      <stop offset="0%" stop-color="#0369a1"/>
      <stop offset="100%" stop-color="#38bdf8"/>
    </linearGradient>
    <linearGradient id="g2" x1="0" y1="0" x2="0" y2="1">
      <stop offset="0%" stop-color="#7dd3fc"/>
      <stop offset="100%" stop-color="#bae6fd"/>
    </linearGradient>
  </defs>
  <circle cx="32" cy="32" r="30" fill="#f0f9ff" stroke="#bae6fd" stroke-width="1.5"/>
  <!-- 구름 -->
  <path d="M14 36 Q14 28 22 28 Q24 20 32 20 Q40 20 42 28 Q50 28 50 36 Q50 42 44 42 L20 42 Q14 42 14 36Z" fill="url(#g1)"/>
  <!-- 구름 하이라이트 -->
  <path d="M18 36 Q18 30 24 30 Q26 24 32 24 Q38 24 40 30 Q46 30 46 36" fill="none" stroke="#bae6fd" stroke-width="1" opacity=".5"/>
  <!-- 업로드 화살표 -->
  <line x1="24" y1="54" x2="24" y2="44" stroke="#0284c7" stroke-width="2.5" stroke-linecap="round"/>
  <polyline points="20,48 24,44 28,48" fill="none" stroke="#0284c7" stroke-width="2.5" stroke-linecap="round" stroke-linejoin="round"/>
  <!-- 다운로드 화살표 -->
  <line x1="40" y1="44" x2="40" y2="54" stroke="#0284c7" stroke-width="2.5" stroke-linecap="round"/>
  <polyline points="36,50 40,54 44,50" fill="none" stroke="#0284c7" stroke-width="2.5" stroke-linecap="round" stroke-linejoin="round"/>
  <!-- 데이터 점들 -->
  <circle cx="32" cy="32" r="1.5" fill="#fff"/>
  <circle cx="26" cy="34" r="1" fill="#bae6fd"/>
  <circle cx="38" cy="34" r="1" fill="#bae6fd"/>
  <!-- 연결선 장식 -->
  <line x1="24" y1="58" x2="24" y2="60" stroke="#7dd3fc" stroke-width="1" stroke-linecap="round" opacity=".5"/>
  <line x1="40" y1="58" x2="40" y2="60" stroke="#7dd3fc" stroke-width="1" stroke-linecap="round" opacity=".5"/>
</svg>