<svg xmlns="http://www.w3.org/2000/svg" viewBox="0 0 64 64">
  <defs>
    <linearGradient id="g1" x1="0" y1="1" x2="0" y2="0">
      <stop offset="0%" stop-color="#be185d"/>
      <stop offset="100%" stop-color="#f9a8d4"/>
    </linearGradient>
    <linearGradient id="g2" x1="0" y1="0" x2="1" y2="1">
      <stop offset="0%" stop-color="#ec4899"/>
      <stop offset="100%" stop-color="#fbcfe8"/>
    </linearGradient>
  </defs>
  <circle cx="32" cy="32" r="30" fill="#fdf2f8" stroke="#fbcfe8" stroke-width="1.5"/>
  <!-- 이퀄라이저 바 -->
  <rect x="8" y="32" width="5" height="16" rx="2" fill="url(#g1)" opacity=".7"/>
  <rect x="15" y="22" width="5" height="26" rx="2" fill="url(#g1)" opacity=".8"/>
  <rect x="22" y="28" width="5" height="20" rx="2" fill="url(#g1)"/>
  <rect x="29" y="18" width="5" height="30" rx="2" fill="url(#g1)"/>
  <rect x="36" y="24" width="5" height="24" rx="2" fill="url(#g1)" opacity=".8"/>
  <rect x="43" y="30" width="5" height="18" rx="2" fill="url(#g1)" opacity=".7"/>
  <rect x="50" y="34" width="5" height="14" rx="2" fill="url(#g1)" opacity=".6"/>
  <!-- 음표 -->
  <circle cx="18" cy="12" r="3" fill="url(#g2)"/>
  <line x1="21" y1="12" x2="21" y2="4" stroke="#ec4899" stroke-width="1.5"/>
  <path d="M21 4 Q25 3 25 6" fill="none" stroke="#ec4899" stroke-width="1.5"/>
  <!-- 음표 2 -->
  <circle cx="46" cy="10" r="2.5" fill="url(#g2)" opacity=".7"/>
  <line x1="48.5" y1="10" x2="48.5" y2="4" stroke="#f9a8d4" stroke-width="1.2"/>
  <!-- 파형 -->
  <path d="M6 56 Q12 52 18 56 Q24 60 30 56 Q36 52 42 56 Q48 60 54 56 Q58 54 60 56" fill="none" stroke="#f9a8d4" stroke-width="1.5" stroke-linecap="round" opacity=".5"/>
</svg>