<svg xmlns="http://www.w3.org/2000/svg" viewBox="0 0 64 64">
  <defs>
    <linearGradient id="g1" x1="0" y1="1" x2="0" y2="0">
      <stop offset="0%" stop-color="#1e40af"/>
      <stop offset="100%" stop-color="#60a5fa"/>
    </linearGradient>
    <linearGradient id="g2" x1="0" y1="1" x2="0" y2="0">
      <stop offset="0%" stop-color="#15803d"/>
      <stop offset="100%" stop-color="#4ade80"/>
    </linearGradient>
    <linearGradient id="g3" x1="0" y1="1" x2="0" y2="0">
      <stop offset="0%" stop-color="#b45309"/>
      <stop offset="100%" stop-color="#fbbf24"/>
    </linearGradient>
  </defs>
  <circle cx="32" cy="32" r="30" fill="#eff6ff" stroke="#bfdbfe" stroke-width="1.5"/>
  <!-- 사람 1 (좌) -->
  <circle cx="16" cy="20" r="5" fill="url(#g1)"/>
  <path d="M8 38 Q8 30 16 30 Q24 30 24 38" fill="url(#g1)"/>
  <!-- 사람 2 (중앙, 약간 위) -->
  <circle cx="32" cy="16" r="6" fill="url(#g2)"/>
  <path d="M22 36 Q22 26 32 26 Q42 26 42 36" fill="url(#g2)"/>
  <!-- 사람 3 (우) -->
  <circle cx="48" cy="20" r="5" fill="url(#g3)"/>
  <path d="M40 38 Q40 30 48 30 Q56 30 56 38" fill="url(#g3)"/>
  <!-- 연결 고리 -->
  <path d="M22 24 Q27 20 27 20" fill="none" stroke="#93c5fd" stroke-width="1.5" stroke-dasharray="2 2"/>
  <path d="M42 24 Q37 20 37 20" fill="none" stroke="#86efac" stroke-width="1.5" stroke-dasharray="2 2"/>
  <path d="M24 34 Q28 32 28 32" fill="none" stroke="#93c5fd" stroke-width="1.5" stroke-dasharray="2 2"/>
  <path d="M40 34 Q36 32 36 32" fill="none" stroke="#fde68a" stroke-width="1.5" stroke-dasharray="2 2"/>
  <!-- 하단 손 맞잡기 -->
  <path d="M14 40 Q16 44 22 44 Q28 44 32 42 Q36 44 42 44 Q48 44 50 40" fill="none" stroke="#94a3b8" stroke-width="1.5" stroke-linecap="round"/>
  <!-- 별/스파크 -->
  <circle cx="32" cy="50" r="2" fill="#fbbf24"/>
  <line x1="32" y1="46" x2="32" y2="48" stroke="#fbbf24" stroke-width="1" stroke-linecap="round"/>
  <line x1="32" y1="52" x2="32" y2="54" stroke="#fbbf24" stroke-width="1" stroke-linecap="round"/>
  <line x1="28" y1="50" x2="30" y2="50" stroke="#fbbf24" stroke-width="1" stroke-linecap="round"/>
  <line x1="34" y1="50" x2="36" y2="50" stroke="#fbbf24" stroke-width="1" stroke-linecap="round"/>
  <!-- 하트 -->
  <path d="M32 56 Q32 53 29 53 Q26 53 26 55 Q26 57 32 60 Q38 57 38 55 Q38 53 35 53 Q32 53 32 56Z" fill="#ec4899" opacity=".6"/>
</svg>