<svg xmlns="http://www.w3.org/2000/svg" viewBox="0 0 64 64">
  <defs>
    <linearGradient id="g1" x1="0" y1="1" x2="0" y2="0">
      <stop offset="0%" stop-color="#1e40af"/>
      <stop offset="100%" stop-color="#60a5fa"/>
    </linearGradient>
    <linearGradient id="g2" x1="0" y1="0" x2="0" y2="1">
      <stop offset="0%" stop-color="#fbbf24"/>
      <stop offset="100%" stop-color="#f59e0b"/>
    </linearGradient>
  </defs>
  <circle cx="32" cy="32" r="30" fill="#eff6ff" stroke="#bfdbfe" stroke-width="1.5"/>
  <!-- 방패 -->
  <path d="M32 6 L50 14 L50 30 Q50 48 32 58 Q14 48 14 30 L14 14Z" fill="url(#g1)"/>
  <path d="M32 10 L46 16 L46 30 Q46 44 32 54 Q18 44 18 30 L18 16Z" fill="#1e3a5f" opacity=".5"/>
  <!-- 자물쇠 -->
  <rect x="24" y="30" width="16" height="14" rx="2" fill="url(#g2)"/>
  <!-- 자물쇠 고리 -->
  <path d="M26 30 L26 24 Q26 18 32 18 Q38 18 38 24 L38 30" fill="none" stroke="#fbbf24" stroke-width="3" stroke-linecap="round"/>
  <!-- 열쇠 구멍 -->
  <circle cx="32" cy="36" r="2.5" fill="#92400e"/>
  <rect x="31" y="37" width="2" height="4" rx=".5" fill="#92400e"/>
  <!-- 빛나는 효과 -->
  <line x1="32" y1="3" x2="32" y2="6" stroke="#60a5fa" stroke-width="1" stroke-linecap="round" opacity=".6"/>
  <line x1="52" y1="14" x2="54" y2="12" stroke="#60a5fa" stroke-width="1" stroke-linecap="round" opacity=".6"/>
  <line x1="12" y1="14" x2="10" y2="12" stroke="#60a5fa" stroke-width="1" stroke-linecap="round" opacity=".6"/>
</svg>