<svg xmlns="http://www.w3.org/2000/svg" viewBox="0 0 64 64">
  <defs>
    <linearGradient id="g1" x1="0" y1="1" x2="0" y2="0">
      <stop offset="0%" stop-color="#0f766e"/>
      <stop offset="100%" stop-color="#2dd4bf"/>
    </linearGradient>
    <linearGradient id="g2" x1="0" y1="0" x2="1" y2="1">
      <stop offset="0%" stop-color="#14b8a6"/>
      <stop offset="100%" stop-color="#99f6e4"/>
    </linearGradient>
  </defs>
  <circle cx="32" cy="32" r="30" fill="#f0fdfa" stroke="#99f6e4" stroke-width="1.5"/>
  <!-- 중앙 허브 -->
  <circle cx="32" cy="32" r="8" fill="url(#g1)"/>
  <circle cx="32" cy="32" r="4" fill="#f0fdfa"/>
  <circle cx="32" cy="32" r="2" fill="#14b8a6"/>
  <!-- 와이파이 신호 -->
  <path d="M26 28 Q32 22 38 28" fill="none" stroke="#2dd4bf" stroke-width="1.2" stroke-linecap="round" opacity=".6"/>
  <path d="M23 25 Q32 18 41 25" fill="none" stroke="#2dd4bf" stroke-width="1" stroke-linecap="round" opacity=".4"/>
  <!-- 연결선 -->
  <line x1="32" y1="24" x2="32" y2="12" stroke="#99f6e4" stroke-width="1.2" stroke-dasharray="2 2"/>
  <line x1="24" y1="32" x2="12" y2="32" stroke="#99f6e4" stroke-width="1.2" stroke-dasharray="2 2"/>
  <line x1="40" y1="32" x2="52" y2="32" stroke="#99f6e4" stroke-width="1.2" stroke-dasharray="2 2"/>
  <line x1="32" y1="40" x2="32" y2="52" stroke="#99f6e4" stroke-width="1.2" stroke-dasharray="2 2"/>
  <line x1="26" y1="26" x2="16" y2="16" stroke="#99f6e4" stroke-width="1" stroke-dasharray="2 2"/>
  <line x1="38" y1="26" x2="48" y2="16" stroke="#99f6e4" stroke-width="1" stroke-dasharray="2 2"/>
  <!-- 집 (상단) -->
  <polygon points="32,6 26,11 38,11" fill="url(#g1)"/>
  <rect x="27" y="11" width="10" height="6" rx="1" fill="url(#g2)"/>
  <!-- 전구 (좌) -->
  <circle cx="10" cy="32" r="5" fill="url(#g2)"/>
  <path d="M8 30 Q10 26 12 30" fill="none" stroke="#0f766e" stroke-width="1"/>
  <rect x="9" y="34" width="2" height="2" rx=".5" fill="#0f766e"/>
  <!-- 온도계 (우) -->
  <rect x="49" y="27" width="6" height="10" rx="3" fill="url(#g2)"/>
  <circle cx="52" cy="35" r="2" fill="#ef4444"/>
  <rect x="51" y="29" width="2" height="6" fill="#ef4444"/>
  <!-- 스마트폰 (하단) -->
  <rect x="27" y="50" width="10" height="14" rx="2" fill="url(#g1)"/>
  <rect x="29" y="52" width="6" height="8" rx="1" fill="#ccfbf1"/>
  <circle cx="32" cy="62" r="1" fill="#99f6e4"/>
  <!-- 시계 (좌상) -->
  <circle cx="14" cy="14" r="5" fill="url(#g2)"/>
  <line x1="14" y1="14" x2="14" y2="11" stroke="#0f766e" stroke-width="1" stroke-linecap="round"/>
  <line x1="14" y1="14" x2="17" y2="14" stroke="#0f766e" stroke-width="1" stroke-linecap="round"/>
  <!-- 카메라 (우상) -->
  <rect x="44" y="11" width="10" height="8" rx="2" fill="url(#g2)"/>
  <circle cx="49" cy="15" r="2.5" fill="#0f766e"/>
  <circle cx="49" cy="15" r="1.2" fill="#99f6e4"/>
</svg>