<svg xmlns="http://www.w3.org/2000/svg" viewBox="0 0 64 64">
  <defs>
    <linearGradient id="g1" x1="0" y1="1" x2="0" y2="0">
      <stop offset="0%" stop-color="#1e293b"/>
      <stop offset="100%" stop-color="#475569"/>
    </linearGradient>
    <linearGradient id="g2" x1="0" y1="0" x2="1" y2="1">
      <stop offset="0%" stop-color="#2563eb"/>
      <stop offset="100%" stop-color="#60a5fa"/>
    </linearGradient>
  </defs>
  <circle cx="32" cy="32" r="30" fill="#f8fafc" stroke="#e2e8f0" stroke-width="1.5"/>
  <!-- ìŠ¤ë§ˆíŠ¸í° -->
  <rect x="16" y="4" width="32" height="56" rx="4" fill="url(#g1)"/>
  <rect x="18" y="10" width="28" height="42" rx="2" fill="#f1f5f9"/>
  <!-- ìƒíƒœë°” -->
  <rect x="18" y="6" width="28" height="4" rx="1" fill="#334155"/>
  <circle cx="32" cy="8" r="1.5" fill="#475569"/>
  <!-- ì•± ê·¸ë¦¬ë“œ -->
  <rect x="21" y="13" width="8" height="8" rx="2" fill="#3b82f6"/>
  <rect x="21" y="13" width="8" height="8" rx="2" fill="url(#g2)"/>
  <rect x="32" y="13" width="8" height="8" rx="2" fill="#22c55e"/>
  <rect x="21" y="24" width="8" height="8" rx="2" fill="#f59e0b"/>
  <rect x="32" y="24" width="8" height="8" rx="2" fill="#ec4899"/>
  <rect x="21" y="35" width="8" height="8" rx="2" fill="#8b5cf6"/>
  <rect x="32" y="35" width="8" height="8" rx="2" fill="#ef4444"/>
  <!-- ì•± ì•„ì´ì½˜ ë‚´ë¶€ -->
  <text x="25" y="19" font-family="sans-serif" font-size="4" fill="#fff" text-anchor="middle">ðŸ’¬</text>
  <text x="36" y="19" font-family="sans-serif" font-size="4" fill="#fff" text-anchor="middle">ðŸ“·</text>
  <text x="25" y="30" font-family="sans-serif" font-size="4" fill="#fff" text-anchor="middle">ðŸŽµ</text>
  <text x="36" y="30" font-family="sans-serif" font-size="4" fill="#fff" text-anchor="middle">ðŸŽ®</text>
  <!-- í™ˆ ë²„íŠ¼ -->
  <circle cx="32" cy="56" r="3" fill="none" stroke="#64748b" stroke-width="1.5"/>
  <!-- ì•Œë¦¼ ë°°ì§€ -->
  <circle cx="41" cy="13" r="3" fill="#ef4444"/>
  <text x="41" y="14.5" font-family="sans-serif" font-size="3.5" fill="#fff" text-anchor="middle">3</text>
</svg>