<svg xmlns="http://www.w3.org/2000/svg" viewBox="0 0 64 64">
  <defs>
    <linearGradient id="g1" x1="0" y1="1" x2="0" y2="0">
      <stop offset="0%" stop-color="#92400e"/>
      <stop offset="100%" stop-color="#f59e0b"/>
    </linearGradient>
    <linearGradient id="g2" x1="0" y1="0" x2="1" y2="1">
      <stop offset="0%" stop-color="#d97706"/>
      <stop offset="100%" stop-color="#fde68a"/>
    </linearGradient>
  </defs>
  <circle cx="32" cy="32" r="30" fill="#fffbeb" stroke="#fde68a" stroke-width="1.5"/>
  <!-- 폴더 뒤 -->
  <rect x="8" y="16" width="48" height="38" rx="3" fill="url(#g1)"/>
  <!-- 폴더 탭 -->
  <path d="M8 16 L8 12 Q8 10 10 10 L24 10 L28 16" fill="url(#g1)"/>
  <!-- 문서 1 -->
  <rect x="14" y="22" width="16" height="20" rx="2" fill="#fff" stroke="#fde68a" stroke-width="1"/>
  <rect x="16" y="25" width="8" height="1.5" rx=".5" fill="#f59e0b" opacity=".6"/>
  <rect x="16" y="28.5" width="12" height="1" rx=".5" fill="#fde68a"/>
  <rect x="16" y="31" width="10" height="1" rx=".5" fill="#fde68a"/>
  <rect x="16" y="33.5" width="12" height="1" rx=".5" fill="#fde68a"/>
  <!-- 이미지 프리뷰 -->
  <rect x="16" y="36" width="12" height="4" rx="1" fill="#dbeafe"/>
  <circle cx="19" cy="38" r="1" fill="#60a5fa"/>
  <polygon points="22,40 25,36 28,40" fill="#22c55e" opacity=".5"/>
  <!-- 문서 2 -->
  <rect x="34" y="20" width="16" height="22" rx="2" fill="#fff" stroke="#fde68a" stroke-width="1"/>
  <rect x="36" y="23" width="6" height="6" rx="1" fill="#dbeafe"/>
  <rect x="36" y="31" width="12" height="1" rx=".5" fill="#fde68a"/>
  <rect x="36" y="34" width="10" height="1" rx=".5" fill="#fde68a"/>
  <rect x="36" y="37" width="8" height="1" rx=".5" fill="#fde68a"/>
  <!-- 스타 배지 -->
  <circle cx="50" cy="14" r="6" fill="url(#g2)"/>
  <polygon points="50,10 51.2,12.5 54,12.5 52,14 52.5,17 50,15.5 47.5,17 48,14 46,12.5 48.8,12.5" fill="#fff"/>
</svg>